<svg xmlns="http://www.w3.org/2000/svg" xml:space="preserve" viewBox="0 0 512 512"><path fill="#FEFFFF" d="M1 193V1h512v512H1V193m415-93.5C357 42.4 287 21.1 207 38.7 91 64.3 17.3 175 35.8 292.7a223.6 223.6 0 0 0 202.8 187c69.1 4.8 128.7-17.3 177.7-66.3 85.5-85.3 85.4-227.6-.3-313.9z"/><path fill="#30994F" d="M416.2 99.8c85.5 86 85.6 228.3.1 313.6-49 49-108.6 71-177.7 66.3-101.4-7-187-86.1-202.8-187C17.3 175.1 91 64.3 207.1 38.7c79.9-17.6 150 3.7 209.1 61M265.4 42c-13.8.8-27.7.4-41.3 2.4a214.5 214.5 0 0 0-179.2 248A215 215 0 0 0 469 225.4 215 215 0 0 0 265.4 42z"/><path fill="#F9F7F6" d="M265.9 42a214.9 214.9 0 1 1-41.8 2.4c13.6-2 27.5-1.6 41.8-2.4m167.6 322a207 207 0 0 0-216-310.5A206.5 206.5 0 0 0 51.9 285.2a206 206 0 0 0 202.9 178.1c77-.2 136.5-34 178.8-99.3z"/><path fill="#C0131F" d="M433.3 364.3c-42.1 65-101.5 98.8-178.6 99a206 206 0 0 1-202.9-178A206.5 206.5 0 0 1 217.6 53.4a207 207 0 0 1 215.7 310.8M75.2 335.6c.5.8 1.1 1.7 1.7 3.1l2 4 2 4c.5 1 1.1 1.9 1.8 3.5l12.5 20.4c2.5 3.2 5 6.3 7.7 10.2 5.4 5.7 10.7 11.5 16.4 17.9 2.5 2.2 5 4.4 7.9 7.2 6.8 5 13.6 10.2 20.9 15.8a183.1 183.1 0 0 1 11.2 7c34.8 20 72.4 27.6 112.2 25.1 10.6-.6 21.1-3.5 32.5-5.5 7-2.1 14-4.3 21.7-6.4 11.8-6 23.7-11.9 36.1-18l10-6.8c3-2.4 6.1-4.7 9.8-7.4 8.1-8 16.2-15.9 25-24.2 4.8-6.5 9.6-13 15-20l9.9-16.7c.2-.6.4-1.2 1-2.2.6-1.2 1-2.4 2-3.9l1-2a57 57 0 0 1 3.2-7c.7-2 1.4-3.8 2.5-6.3a69 69 0 0 1 2.5-6.9c2.6-10.7 5.1-21.5 8-33a189.3 189.3 0 0 0-.7-66.2l-.8-3.4-6.1-23.5a821.8 821.8 0 0 1-5.7-14.2l-.1-1c-4.4-8.4-8.8-16.9-13.3-26-.6-.8-1.2-1.6-2-3.1-1.5-2.4-2.8-5-4.7-7-6.9-8.3-14-16.4-21.2-25.1a41 41 0 0 0-2.7-2.3l-6.3-4.8v-.8c-4.1-3.7-8-7.8-12.4-11.2-12.8-10-26.8-18-41.8-24.2-8.7-3.6-17.9-6-27.5-9.3L277.1 60l-21-1-6.8.2h-2.1c-6.3.5-12.6.8-18.8 1.8-16 2.4-31.7 6-47.2 13l-15 7-8.7 4.6a186 186 0 0 0-39 29.6c-12 12-22.7 24.7-31.4 40a178.2 178.2 0 0 0-18.7 41.2c-1.1 3.7-2.3 7.3-3.2 11-6 23.8-8.3 48-4.7 72.1 2.1 14.7 6.8 29 10.3 44.2.7 1.4 1.3 2.9 2 5l1.1 3 1.3 3.8z"/><path fill="#361E32" d="M453 236c2.1 17.2 1.5 34.4-1.8 51.7a16.6 16.6 0 0 1-3.1-5.8c-.7-2.5-1-5.1-1.5-7.7-1.2-6.2-2.3-12.5-3.7-18.6-.3-1.4-1.8-2.4-2.7-4-1.6-3.4-3-6.5-4.1-9.6.8-1.2 1.9-2.4 1.6-3-2.1-5.4-4.5-10.6-7-16.4 3.7-4.1.1-7.8-2.4-11.6.6-.4 1-.7 1.2-1l-.6-.5c-.3.5-.6 1-1.3 1.5-1-.9-2.5-2-2.3-2.4 2.5-5-1.4-7.1-4.3-10 .4-2.4.4-4.4 1.1-6.1a6 6 0 0 0-6-8.1c-1.3 0-2.5-.7-3.8-1 .5-1.5.6-3.3 1.5-4.4 1-1.5 2.7-2.5 4.2-3.7l-.3-1.5L405 172l1.6-4.9-5.8-2.8c.7-1 1-1.7 1.3-1.7 3.1-.7 5.6-2.8 4.3-5.7-.7-1.7-4.3-2.4-6.7-3-2.8-.6-5.9-.7-9-1.3-.7-.4-1.2-.6-1.8-1.1 1.3-8.1-.2-10.5-6.1-9.1v-5.9c1.4 1 2 1.7 2.4 1.7 1.7-.3 3.5-.4 4.8-1.3.7-.5 1-2.8.6-3.5-.7-1-2.5-1.5-3.7-1.4-3 .4-6 1.2-9.5 1.9-9.8-1-19.3-1.2-28.2-4.7 13.8-6.4 13.8-6.4 12-14.3 4.2 1 7.5 5.3 11.6 2.2l-3-8-3 2.6c-3.5-1.7-6.7-3.2-9.9-5.2l-.7-8.9 7 1c1.3 2.7 1.8 5.5 3.5 6.8 1.6 1.3 4.5.6 6.6 1.3 1.6.4 4.2 1.5 4.3 2.5.2 2.5-.6 5.2-1.3 9.2l16.2 3.6-5.2 4.7c2.1 1.3 3.7 2.4 5.4 3.2 2.8 1.3 5.9 2.2 8.6 3.8 1.1.6 2.5 2.6 2.3 3.7-.2 1.1-2 2.2-3.4 2.8-1.9.7-4 1-5.9 1.3v1.6c3.2.6 6.5 1.4 9.8 1.7 3.2.3 5 1.1 3.6 4.3 2.6 1 5.4 1.3 7.4 2.8 5 3.3 4.7 5-.6 7.5-.2.1-.3.6-.7 1.3l16.4 13.2c-1.1 1-2.8 1.7-3 2.7-1.1 3.5 4 9.2 7.7 9.7.4 2.4.4 4.7 1.2 6.6.9 2 3.2 3.5 3.6 5.5.3 1.8-1.2 4-2 6.3 5.4-.7 6 2.3 5.6 6.8-.3 2.7.3 5.5 1.1 8.1 1.3 4.4 3.5 8.5 4.3 13 .6 2.9 1.7 3.5 4.2 3.3m-14.6-10.9h-3v1.3c.6.2 1.4.5 2 .5.5 0 .8-.8 1-1.8m-51.9-96.8-1.6-1-.4.8c.5.2 1 .4 2 .2m61.8 137.1-.9.9.4.3c.3-.3.5-.5.5-1.2z"/><path fill="#252F4A" d="M68.8 196c4.1-14.5 10.5-27.9 19-40.9 5.8-1.8 11-3.5 16.5-4.9 1.6.8 3.1 2 4.2 1.7 6.9-2.1 13.7-4.6 20.9-6.9 4.5-1 8.5-2 12.6-2.7 1.6.2 3.1-.3 4.6-.2 1.7.2 3.5.6 4.8 1.5.5.3 0 3.4-.8 3.8-3.2 1.7-6.7 2.9-10 4.3-1.6.7-3.5 1.3-4.5 2.5-.5.7.7 2.7 1 4 .3 1 .6 1.9.7 3-.5.7-.6 1.2-1.2 1.8l-4 3c-1.6-.1-3-.6-4-.2-7.5 3.3-15 6.8-22.3 10.4-1.4.7-2.3 2.5-3.3 3.7l2.9 4c-2.4 2-4.7 3.6-6.6 5.6-6.3 7-12.4 14.2-18.6 21.3-2.7 3-6 5.9-4.1 10.8 0 .2-1 1-1.9 1.2-.5-1-.7-1.8-1.2-2.5-3.2-4.7-4.1-9.2-1.6-15 1-2.2-2-6.2-3-9.3m61.7-44.7-.9-.9-.3.4c.3.3.5.6 1.2.5m3.8 8.2s.1 0 0 0z"/><path fill="#311E2D" d="M435 186c-3.8 0-8.8-5.8-7.8-9.3.3-1 2-1.7 3.1-2.7L414 160.8c.4-.7.5-1.2.7-1.3 5.3-2.6 5.6-4.2.6-7.5-2-1.5-4.8-1.9-7.4-2.8 1.4-3.2-.4-4-3.6-4.3-3.3-.3-6.6-1.1-9.9-1.7l.1-1.6c2-.4 4-.6 5.9-1.3 1.3-.6 3.2-1.7 3.4-2.8.2-1.1-1.2-3-2.3-3.7-2.7-1.6-5.8-2.5-8.6-3.8-1.7-.8-3.3-2-5.4-3.2l5.2-4.7-16.2-3.6c.7-4 1.5-6.7 1.3-9.2 0-1-2.7-2-4.3-2.5-2.1-.7-5 0-6.6-1.3-1.7-1.3-2.2-4-3.5-6.8l-7-1c.2 2.7.5 5.6.3 9-6.2 1.4-14.8-3-14.4-7.4.6-6.2-3.8-8-7.7-10.7-2.2-1.5-4-3.5-6-5.3-1-1-2.6-3-3.2-2.8-4.5 2-6.3-1.6-7.6-3.3-2.4 1.4-4.3 2.4-6 3.6-.7.5-1.1 1.4-2 2.2-.8 0-1.3 0-2-.3-1.3-.4-2.5-.6-4-.6l-3 1c-4.4 0-8.1 5.1-13.1.1l6.5-2.2c3.8-1.3 7.8-2.3 11.5-4 1.1-.5 1.4-2.8 2.1-4.3-1.4-.5-2.9-1.2-4.3-1.3-2.1 0-4.3.4-6.3.2 1.9-1.1 3.8-1.8 5.6-2.7 1.5-.9 2.9-2 4.3-3 9 2.9 18.2 5.2 27 8.8C348.8 81 362.8 89 375.6 99c4.4 3.4 8.3 7.5 12.1 11.7l-1.3 1.6.4.3 1.3-1.6c2 1.6 4.2 3.2 6.5 5.4.6 1.4.8 2.3 1 3.2l1.6-1 21 24.5c1.9 2.2 3.2 4.7 4.6 7.7l-1.2 3.8 3.4-.7c4.4 8.5 8.8 17 12.8 25.8-4.6 1-2.2 4.3-2.9 6.4m-65.3-84.5-.3 1.7h1.2c0-.6-.2-1.2-.9-1.7m-40.5-24.9v-1.2h-.5c0 .4 0 .8.5 1.2m-16 2v-1.2h-.5c0 .4 0 .8.5 1.2z"/><path fill="#262845" d="M104 150c-5.2 1.6-10.4 3.3-16 4.9a155.3 155.3 0 0 1 31.2-39.7c6.8-2.1 13.9-2.1 17.6-10.3 1.5 5.3 4 4.5 6.8 2.5.9-.6 2.3-.3 3.8-.2l12 3.8c3.6 1 7.4 3 10.9 2.7 3.5-.3 5.2.8 6.7 3.7 0 2.2 0 3.9-.3 5.7-1 .4-1.8.8-3 1.1-.7 0-1.2 0-1.8-.3-.7.2-1.3.6-2.3 1.2l-23 9-16 5L104 150z"/><path fill="#1D2532" d="M303.2 448.5c-10.6 1.8-21 4.7-31.7 5.3A194.4 194.4 0 0 1 159 428.3c-.1-.3 0-.4.3-.3a40 40 0 0 0 4.7-2.8l-7.9-3.5.9 5.2-.1.1a86 86 0 0 1-8.7-5.6c8-.4 15.9-.4 23.8 0 2.7 1.4 5.3 2.5 7.8 4-.7.8-1.4 1.4-1.8 2l-2.9 5.4c1.8.4 3.6 1 5.4 1.2 3.4.3 7-.8 9.6 2.6.9 1 2.7 1.4 4 2.1.7-1.5 1.2-3.1 2.3-4.7 9.7 1 19 2 28.4 3.2 1.7.2 3.3.9 5 1 9.1.4 18.6-.8 27.3 1.4 12.1 3 24.3 4.2 36.6 5.5 3.2.4 6.3 2.2 9.4 3.4z"/><path fill="#243248" d="M68.6 196.2c1.4 3 4.2 6.9 3.3 9.2-2.5 5.7-1.6 10.2 1.6 14.9.5.7.7 1.5 1.2 3 0 3.8-.2 7-.5 10.3 7.1 2.5-1.8 4-.6 7 1.2.1 2.7.2 4.1.6-7.5 7.4-6.4 14 .3 15.7l-2.3 6.3c1.3 2.6 1.7 5.2 1.7 7.9 0 4.8-.3 9.7-.5 14.6v6.4c.1 5-.8 10.1.5 14.7 2 7.6-1.4 12.1-6.6 16.3-3.5-14.5-8.2-28.8-10.3-43.5a184.3 184.3 0 0 1 8.1-83.4z"/><path fill="#2A3F60" d="M73.8 331.1c-.4-.8-.7-1.5-.7-2.8 5.7-3.7 9.2-8.2 10.9-14.3h.4c5.5-2.9 9.1-9.4 8.6-14.5-.8-7.4-1.5-14.7-2-22.1-.5-7.8-.5-15.7-1.1-23.5-.2-1.4-2.1-2.7-3.1-4.4 8.3-11.3 16.5-22.3 24.9-33.2 3.4-4.4 5.6-4.5 9-.2 3.7 4.7 7 9.6 10.3 14.7-3 2.9-5.3 6-9.8 6.3-5.4-2.4-9.3-1.7-11.5 2-2.3 3.8-1 7.8 3.4 11.7-1.5.8-3 1.2-4.5 1.7.6 5.5.4 5.4-3.8 11.4-1.2 1.7-1.3 4.2-1.5 6.4-.6 5.3-1 10.7-1.5 17.3 2 2.3 2.7 11.5-.8 15.7-6 7-12.6 13.4-18.8 20.2-2.2 2.4-4.1 5-6.6 7.5l-1.8.1m24.6-30.9 1 .1v-.7c-.3 0-.6 0-1 .6m-1-2.6s0-.1 0 0z"/><path fill="#1E2939" d="M303.6 448.4c-3.5-1-6.6-3-9.8-3.3-12.3-1.3-24.5-2.4-36.6-5.5-8.7-2.2-18.2-1-27.3-1.5-1.7 0-3.3-.7-5-1-9.3-1-18.7-2-28.4-3.5.2-1.7.9-3.2 1.5-4.6l-5.5-3-5.6-3.3c.9-.7 1.5-1.2 2.5-1.6l11.8 1.1 40.3 4.8c7.5 1 15.4 1 22.5 3.2 15.1 4.6 30.6 5.3 46 7 5.1.5 10 3 15 4.7l-21.4 6.5z"/><path fill="#2C1E2E" d="M306.7 65.6a16 16 0 0 1-4 3.3c-1.8 1-3.7 1.6-6 2.8-1.5 1.3-2.4 2.4-3.6 3.2-1.6 1.2-3.3 2.8-5 2.9-2.5.2-5-.8-8.5-1.5l5.7-6.7c-6.6 1.2-12.5 2.3-18.2 3.1-.3-1-.7-1.6-1.1-2.3l-1.2 1c.8.5 1.5 1 2.1 2-3.6 2.4-7.3 4.5-11.3 6.6L242 74l-1 1.7c-1.8 2.7-4.7 2.7-4.6 0l3.6-2.8c-3.5-2.7-6.1-1.2-8.7.6l-3.5 2.3a49 49 0 0 1-5 2.2h-4.2c-3.5-.7-6.6-1.3-9.7-2.4-3-.4-6-.5-9.3-.6-6.3 3.4-11.9-.8-17.6-1a168.6 168.6 0 0 1 65.7-14.4c1 .2 1.7 0 2.3-.2 2 0 4-.2 6.6 0l3.3 6.1c2 .6 3.8 1.1 5.6 1.4 2 .4 4.7 1.4 6 .5 2.6-1.7 4.4-4.6 6.5-7 9.5 1.6 19 3.3 28.7 5.2M252 69.3c-1.2 2.6-.6 4.2 2.4 2.9 1.3-.6 2-2.7 3-4-1.6.1-3.3.3-5.4 1m40-.5L294 66l-1.9-.9c-.3 1-.6 2-.3 3.5m-30.3 3.9 1.8-1-1.2-1.3c-.3.6-.7 1.2-.6 2.3m32.4-1.3.4-.7c-.3 0-.5-.2-.7-.3 0 .4-.1.7.3 1z"/><path fill="#202D41" d="M325.4 441.9c-5.4-1.6-10.3-4.2-15.4-4.7-15.4-1.7-30.9-2.4-46-7-7.1-2.2-15-2.3-22.5-3.2l-40.3-4.8c-3.8-.4-7.6-.7-11.6-1.5.2-1.6.8-2.9 1.3-4.1l-1.6-1c-1 1.3-2.1 2.8-3.4 4-1.8 1.9-3.9 3.6-5.9 5.4a40.9 40.9 0 0 1-7.8-4c2.3-2.4 4.5-4.2 7.2-6l12.4-3.3c.9 0 1.5 0 2.1.4 1.6 4.5 5.2 2.4 7.9 2.9 4.7.9 10.3-.7 12.7 3.6 6.4-.5 12.1-1.6 17.9-1.4 5.6.3 11.3 2 17 3 11.8 2 23.6 4 35.4 5.8l14.4 2c.5 0 .6 0 1 .2a6 6 0 0 0 2.2.8c2.9 0 5.2 0 7.7.4 1.7.8 3.3 1.2 5.2 1.7 3.9 1.4 7.8 4.3 10.9 3.6 8.5-2 16.7-5.4 25-8.4 3.3-1.2 6-4.5 10-2.2-11.8 6-23.7 11.8-35.8 17.8z"/><path fill="#252F4A" d="m300 428-1-.3c-3.8-3.4 1.4-5 1.4-7.7 9.9-3 19.4-6.1 29.3-9.2 4.1 1.7 7.6 2 10.7-1.8 3-.3 5.8-.7 8.5-.7v3.7c4.5-2.8 4.5-2.8 11.3-.2-1-2.9-1.9-5.2-2.3-7.7 3.3.3 6.2.6 9.2 1.2 2.2 3 4.2 5.6 3 9.4-.1.7.7 1.7 1 2.7-3 2.2-6.1 4.4-9.6 6.6-4.3-2.2-7 1.1-10.3 2.3-8.3 3-16.5 6.4-25 8.4-3 .7-7-2.2-10.9-4-.2-2.4 0-4.3.1-6.4h-5.1l-.3 4.7c-2.4 0-4.7 0-7.6-.3l-2.4-.7z"/><path fill="#392248" d="M443.2 321c-.6 2.2-1.3 4.3-2.6 6.7-6.6 0-7.8-4.7-9.2-9.3-5.8 1.1-3.6-3.2-3.6-5.8-5.2 0-10.4-5.3-10.5-10.9 0-4.1 0-8-.3-11.9-.6-8.6-1.3-17.2-1.6-25.8 3.5-1.2 6-.3 8.3 2 1 1.1 2.8 1.4 4.4 2.3 2.2 6.4 4.4 12.3 6.2 18.4 1.4 4.5 2.6 9.1 3.3 13.8.8 5.6.8 11.3 1.6 17 .3 1.3 2.6 2.4 4 3.6z"/><path fill="#243954" d="M84 314c-1.7 6-5.2 10.6-11 14-1-1.3-1.5-2.8-2.2-4.6 5.2-4.5 8.7-9 6.6-16.6-1.3-4.6-.4-9.8-.4-14.7 0-2.1-.1-4.3 0-6.4 0-4.9.4-9.8.4-14.6 0-2.7-.4-5.3-1.7-8l2.6-6.3 8.4-7c1 1.4 3 2.7 3.2 4.1.6 7.8.6 15.7 1.1 23.5.5 7.4 1.2 14.7 2 22.1.5 5-3 11.6-8.8 14.3l-1.5-.2 1.3.4m2.8-45.6v1.2h.5c0-.4 0-.8-.5-1.2z"/><path fill="#381F3E" d="M443.5 320.8c-1.7-1-4-2-4.3-3.4-.8-5.6-.8-11.3-1.6-16.9-.7-4.7-2-9.3-3.3-13.8-1.8-6-4-12-6.2-18.8.1-1.6 0-3 .6-3.4 3.3-2.2.5-4.4 0-6.4-1-3-2.2-6-3-8.8l2.6 3.3c4.1 5.3 8 5.1 11.9-.6 1 1.2 2.4 2.2 2.7 3.6 1.4 6.1 2.5 12.4 3.7 18.6.5 2.6.8 5.2 1.5 7.7.5 2 1.7 4 3 6.1-2.3 11-4.8 21.8-7.6 32.8z"/><path fill="#2A2D53" d="M348.8 408c-2.6.3-5.3.7-8.7.7-1.6-.2-2.5 0-3.4 0-1.7-.2-3.6 0-4.9-.9-.7-.5-.8-3.5-.3-3.9 1.5-.8 3.4-.8 5.2-1.2l3.6-.7c10.8-4.7 21.4-9 33-10.8l2.6 5.4 1-1c1.8 1.8 3.5 3.7 5.4 5.3.8.6 2.3 1 3 .6.8-.4 1.5-1.8 1.5-2.7 0-2.4-.2-5-1-7.2-.6-1.5-2.5-2.4-3.8-3.6a28.4 28.4 0 0 1-3.6-4c3-1 5.9-1.8 8.4-3 2.6-1.4 4.8-3.3 7.6-5 1.4.4 2.7.5 3.3 1.1 2.9 2.8 5.5 5.8 8.2 8.7-8 8-16.2 16-24.6 23.7-2.2-9.7-2.2-9.7-10-10L367 405l-9.3-1.1c-1.4-1.7-2.2-3.1-3.5-5.5l-5.4 9.6z"/><path fill="#3E2756" d="M417 302c.4 5.3 5.6 10.6 10.8 10.6 0 2.6-2.2 7 3.6 5.8 1.4 4.6 2.6 9.4 9 9.6-.3 1.9-1 3.8-2.3 5.7-6-4.6-11.4-9.4-17-14-5.3-4.4-10.7-8.5-16.1-13-2.2-4.5-4.6-8.2-9.4-9.6-1.4-.4-2.4-2-3.6-3.5 2.7-4.4 5.3-8.5 8-12.5.4-2.2-4-5.4 2.3-7 1 1.4 1.9 2.7 2.7 4.2.7.8 1.4 1.2 2.4 1.7 1.4.4 2.5.7 3.6 1.3 0 .2 0 .7-.3 1 .7 2.8 1.5 5.6 2.5 8.2.5 1.1 1.7 2 2 3.2.8 2.7 1.2 5.5 1.8 8.3m-16.6-9.8h1.2v-.5c-.4 0-.8 0-1.2.5z"/><path fill="#2A1E39" d="M222 78s.5 0 1 .3c1.2 1 2 2 2.8 2.8-1 .6-1.7 1.4-2.7 1.8-3.3 1.5-6.7 2.8-10.4 4.1-.8 0-1.3 0-2-.3-1.3.3-2.5.8-4 1.3-4.1 2.5-7.8 4.8-12.6 3.2-.5-.1-1.4 1.2-2.5 1.8-1.5 0-2.5 0-3.8-.3-5-1.8-9.8-3.3-14.5-4.8-3.5-1.1-6.6-2.6-6.3-7a742 742 0 0 1 14.6-7c6.1.3 11.7 4.5 18 1.5l7.9 8L209 76c3 .7 6.1 1.3 9.6 2.3 1.5.1 2.4 0 3.4-.3z"/><path fill="#26223C" d="M166.6 81c.1 4.3 3.2 5.8 6.7 6.9 4.7 1.5 9.5 3 14.3 5-11.4 5-21.1 7-24.4 4.2l15.4-4.2c-6.5-4-11.9-1.1-17.1 2.2-5 3.2-7 10.5-14.2 11-.2 0-.2.6-.3.9-1.1.1-2.5-.2-3.4.4-2.9 2-5.3 2.8-6.8-2.5-3.7 8.2-10.8 8.2-17.3 10.1 11-11.7 24-21.1 38-29.3 2.9-1.7 5.9-3.1 9.1-4.7z"/><path fill="#243E57" d="m179 415-6.9 5.7c-8 .3-15.7.3-24 .4-7.3-5-14.1-10.1-20.9-15.8 7.6-.7 15.2-1.5 20.6 5.6 1.7-2.1 3.3-4.7 5.6-.9.8.6 2.3 1.2 2.5 1 2.4-4 4.5-2.7 6.5.3.3.4 1.2.4 2.3.7-.3-1.7-.5-2.8-.4-4 3.2.3 5.9.7 8.7 1.3 2.1 1 4 1.8 6 3v2.7z"/><path fill="#2E5D8C" d="M95 370c-4-6.6-8.2-13.2-12.1-20.5 1.8-1.6 3.4-2.6 5.2-3.3a43.7 43.7 0 0 0 21 11c.3.5.6.7 1.2 1-.9 1.7-1.8 3.5-3.2 4.6-2.2 1.6-4.7 2.8-7.4 4.3L95 370z"/><path fill="#254462" d="M153.5 409.7c-2.4-3.5-4-1-5.7 1.2-5.4-7-13-6.3-20.7-6-2.8-1.8-5.3-4-8-6.9 2-2.4 4-4.2 5.9-5.6 1 1 2 1.8 3.4 2.6l4.7 1c8 1.7 16 3.3 23.9 5.4l-3.5 8.3z"/><path fill="#373766" d="M406.2 385.7c-3-2.8-5.6-5.8-8.5-8.6-.6-.6-2-.7-3.3-1.3-.4-.5-.4-.6-.4-1.1 0-.8 0-1.3.4-1.7 5.1-1.3 10-2.5 14.6-4 2-.7 5.5-2 5.5-3.1.2-2.8-1-5.8-2-8.6-.4-1.2-1.6-2.2-2.1-3.3l2.9.1c4.1 3.2 7.3 6.7 7.7 11.9-4.8 6.5-9.6 13-14.8 19.7z"/><path fill="#443E6D" d="M421.3 365.8c-.7-5-3.9-8.5-8-12 4.4-8.8 4.4-8.8-4.7-12.5-1.4-.6-3-.9-4.8-1.6-1.7-1-3.3-1.9-4.8-3 .3-1.8.7-3.2 1.3-4.6 4.4 2 8.4 4.1 12.7 6.4l13.3 7.8 4.7 3-9.7 16.5z"/><path fill="#311E2D" d="M453 235.6c-2.5.6-3.6 0-4.2-3-.8-4.4-3-8.5-4.3-12.9-.8-2.6-1.4-5.4-1-8 .4-4.6-.3-7.6-5.7-6.9.8-2.3 2.3-4.5 2-6.3-.4-2-2.7-3.5-3.6-5.5-.8-2-.8-4.2-1.2-6.6 0-.4 0-.4.4-.5 1.2-1.8 2.1-3.7 3-5.5 1.6 3.9 3.2 7.8 4.6 12.2.2 1.2.7 1.8 1.1 2.4 2 7.6 4 15.3 6 23.6.2 1.6.5 2.5.9 3.4l2 13.6z"/><path fill="#254462" d="M95.1 370.3c1.4-1.3 2.8-2.2 4.8-2.9 1.8.7 3.2 1 4.4 1.7 3 1.4 7.7.3 8 5.7 0 .2 2.5 1 3.1.5 4.5-3.4 9-3.2 13.6 1l-1 8c-.4.4-.7.6-1.2.4-8.1-1.8-16.1-3.2-24.1-4.6l-7.6-9.8z"/><path fill="#5084BF" d="M80.7 346.1c-.6-1.1-1.2-2.2-1.6-3.7 4.8-3.8 10.4-6.1 11.8-12.6l3.5.2c1.7-.6 3-1 4.3-1.9 9.5-6.2 18.7-12.8 28.5-18.7 7.1-4.3 15-7.5 22.3-11.5 2-1.1 3.7-3.2 5.8-4.9.8 0 1.2 0 1.6.4-.6 1.7-.8 3.8-1.9 4.4-3.5 2-7.3 3.5-11.3 5.2l-2 2-3 1c-8.2 4.6-16.5 8.6-23.8 13.8-11.7 8.3-22.8 17.5-34.2 26.3z"/><path fill="#243954" d="M102.8 380.4c7.9 1.1 15.9 2.5 24 4.6a49 49 0 0 1-1.8 7c-2 1.8-4 3.6-6 5.8a458.9 458.9 0 0 1-16.2-17.4z"/><path fill="#5993C9" d="M80.8 346.4c11.3-9 22.4-18.3 34-26.6 7.4-5.2 15.7-9.2 24-13.5.7.7 1 1.2 1 2l-5.1 1.7-2 2.1c-12 8.1-23.8 16-35.4 24.2-.9.6-.9 2.5-1.4 4.1l-8 5.5-5 3.3a7.7 7.7 0 0 1-2.1-2.8z"/><path fill="#2A3759" d="M367.1 405.3c1.3-2 2.6-3.7 4.2-5.8 7.8.3 7.8.3 9.7 10.1-3 2.8-6.1 5.1-9.5 7.6-.7-.8-1.5-1.8-1.3-2.5 1.1-3.8-1-6.4-3-9.4z"/><path fill="#453163" d="M405 307c5.4 4.2 10.8 8.3 16.1 12.7 5.6 4.6 11 9.4 16.8 14.3 0 1-.3 1.7-1 2.7-1 0-1.6 0-2-.4l-26.3-22.2c-1.4-1.2-3-2-4.6-3.5a50.2 50.2 0 0 1 1-3.6z"/><path fill="#504176" d="M404 311c1.5 1 3.2 1.9 4.6 3 8.8 7.5 17.6 15 26.4 22.3.3.3.8.4 1.6.7a6.8 6.8 0 0 1-1.4 3.6c-2.3-3-4-6-8.2-5.6v-.4a354 354 0 0 0-16.7-15.4c-2.8-2.4-6.2-4.1-9.3-6.5 0-.8 0-1.3.4-1.7h2.6z"/><path fill="#356BA6" d="m94 330-3.1-.2c-1.4 6.5-7 8.8-11.9 12.3-1-1.1-1.5-2.2-1.8-3.8 3.1-4.1 6-7.7 8.8-11.6 0-.8 0-1.3.4-1.7 2.1-.3 3.9-.7 5.8-.8 2.4-.5 4.6-1.4 6.8-1.8-1.7 2.7-3.3 5.2-5 7.6z"/><path fill="#311E2D" d="M277.6 60.2c-1.7 2.6-3.5 5.5-6 7.2-1.4 1-4-.1-6.1-.5-1.8-.3-3.5-.8-5.6-1.4l-2.9-6c6.7 0 13.4.3 20.6.7z"/><path fill="#64659F" d="M434 343c-.4 1.2-1 2.4-2 3.7a53.8 53.8 0 0 1-7.2-5c-.7-.4-1.2-.5-1.8-1l-2-2c-4.4-4.2-8.7-8-13-12 0-.8 0-1.3.4-1.7a85 85 0 0 1 6 2.1c2.5 2 4.6 4 7 5.6 1.6 1.1 3.7 1.6 5.6 2.3v.4c2.4 2.8 4.7 5.2 7 7.6z"/><path fill="#29538A" d="m86 327-8.8 11a4.3 4.3 0 0 1-1.7-2.7L86 327z"/><path fill="#534C84" d="M434.3 342.9c-2.6-2.3-5-4.7-7.3-7.5 4.1-.7 5.9 2.3 7.9 5.4 0 .8-.2 1.4-.6 2z"/><path fill="#294B79" d="M86 326.7c-3.4 3-6.8 5.6-10.5 8.3a13 13 0 0 1-1.7-3.6c.5-.3 1-.4 2.2-.4 3.5-2 6.2-4 9.2-6h.8v1.7z"/><path fill="#7D72A4" d="m425 342 6.8 5c0 .6-.1 1.2-.5 2-1.8-.6-3.3-1.5-5-3-.7-1.7-1-2.9-1.3-4z"/><path fill="#361E32" d="M438.4 180.3c-.9 2-1.8 3.8-3 5.6.3-2-2.1-5.3 2.5-5.9.4 0 .5.2.5.3zM425 153.5c-1 .6-2.2.8-3.3 1l1.3-3.4c.8.5 1.4 1.3 2 2.4zM397.2 118.3c-.4.6-1 .9-1.4 1.2l-.8-3c.7.2 1.4.9 2.2 1.8zM451 221.7c-.4-.6-.7-1.5-1-2.7.5.6.7 1.4 1 2.7z"/><path fill="#311E2D" d="M249.7 59.4c-.3.2-1 .4-1.6.3.4-.3.8-.4 1.6-.3z"/><path fill="#361E32" d="M444 194.7c-.3-.3-.8-1-1-1.7.6.4.8.9 1 1.7z"/><path fill="#1D2532" d="M159 428c-.6 0-1.2-.3-1.9-.7-.1-.3 0-.3.3-.3.7.3 1.2.6 1.6 1z"/><path fill="#F8F7F8" d="M440.2 251.6c-3.9 6.1-7.8 6.3-12 1l-2.6-3.6c-8.7-11.3-16.9-22.1-25.3-32.7-3.7-4.6-4.7-4.4-8.7.6l-13.8 18.3-10.2 13.6c-3.2 3.5-5 8.4-11 7.5l-1.4-.7c-5.1-3.8-3-7.2 0-10.8l4.5-6 5.2-7.2 7.5-10.6c2-2.4 3.7-4.7 5.6-7.3 3.2-3.7 6.1-7 9.4-10.5l3.1-1.8c2.4-.5 4.5-1 6.8-1.2l1.8.5 4.2 1.4c2.3 2 4.7 3.7 6.4 5.9 8.8 11.3 17.4 22.7 26 34.1 1.5 3 3 6 4.5 9.5z"/><path fill="#341E33" d="M256 80c3.6-2.1 7.3-4.2 11-6.7V73l18.3-3.4-5.7 6.7c3.4.7 6 1.7 8.5 1.5 1.7-.1 3.4-1.7 5-2.9 1.2-.8 2.1-1.9 3.5-2.9 2.5-.2 4.7-.7 6.8-.6 1.4 0 2.9.8 4.3 1.3-.7 1.5-1 3.8-2 4.3-3.8 1.7-7.8 2.7-11.6 4l-6.5 2.2c5 5 8.7 0 13 .2-.5 2.9-1.2 5.4-2.1 8.8 6.8-1.2 10.3-4 11.5-9.2.6-.8 1-1.7 1.7-2.2 1.7-1.2 3.6-2.2 6-3.6 1.3 1.7 3 5.3 7.6 3.3.6-.3 2.2 1.8 3.2 2.8 2 1.8 3.8 3.8 6 5.3 3.9 2.7 8.3 4.5 7.7 10.7-.4 4.5 8.2 8.8 14.4 7.7l10.3 4.8 3-2.7 3 8.1c-4 3.1-7.4-1.2-11.9-2.2-1.5 0-2.3 0-3-.4l-4.3-4.5c-.9 1-1.8 2-3 2.9-1.5.7-2.6 1.3-4 2.2-1 .7-1.6 1.7-2.2 1.7-2 0-4.1-.5-6.2-.7 1-1.3 2-2.7 3.2-3.9.5-.6 1.6-.6 2.1-1.2.9-.8 1.5-2 2.2-3-1.1-.6-2.2-2-3.4-2-4.8-.2-8.4 2.3-11.6 5.9-.5 0-.6 0-.8-.4l-.4-4.7c-1.2 1-2 1.5-3 2.1-1.1 0-1.9 0-2.6-.4.7-4.6 3.8-5.4 7.3-5.6l7.5-.4.5-2-6.7-2.8 1.2-3.7c-4.2-.7-8-1.5-11.7-2-1.1-.2-2.4.1-3.4.6a21 21 0 0 1-12.5 1.5c-6.7-1.2-7.5 0-5.8 6.8-3.6-.3-7-.7-10.4-1.4l-4.9-8 1.9-3.5c-2.8.4-5 .6-7 1-2.3.3-4.6.7-6.8 1.4-4 1.3-4.6-.6-3.9-3.7L284 83l-.4-1.3-15-6c-2.1.5-3.2 2.7 0 7.3-5 0-8.7 0-12.5-.4V80z"/><path fill="#431C3E" d="M347 115c1.1-.7 2.2-1.3 4-2 2.8.7 5 1.3 7 2h2.6c2.5 8 2.5 8-11.3 14.3 8.9 3.5 18.4 3.7 28.2 5.1 1 2.1 1.2 3.9 1.8 5.5 1.2 3 .7 4.5-2.9 3.8-3.5-.7-5.5 1-6.8 4.3-4.6 3.8-9 5.7-14.7 1.9 2.2-4 .3-5.5-3.4-6.7-4-1.3-7.6-2.6-12-1.4-3 .9-6 .5-4.7-4.5.8-3 .1-6.5.1-10-1.7.3-2.8.5-3.9.4v-2c0-1.2 0-2 .4-2.7 1.8 0 3.2 0 4.6.3l1.1 2.2c.3-.8.6-1.7 1.2-2.7 1.5-1.1 2.6-2.5 3.9-2.7 3.2-.4 4.9-1.8 4.8-5.1m0 22.7c1-1.3 1.8-2.5 2.7-4-5.2.7-5.2.7-2.6 4m-6.6.4-1 1.2 1.6.4c0-.5 0-1-.6-1.6zM403 202c-1.2-.4-2.4-.8-3.9-1.6-.8-1.2-1.5-1.8-2.1-2.8l.7-5-15-12.2 4.2-9-9.6.5 2.2-2.6 2.2-3.4c-1.3-.6-2.5-1.4-3.8-1.8a4 4 0 0 0-2.5 0c-6 2-10.7.5-14.6-6.3a252 252 0 0 1 10.6-6.8l7.4-1.5c2.5 2.8 5.8 5.1 10.2 2.4.6.2 1.1.4 1.8 1.2l1 5.4c-3.4.2-7.2-2.4-9.4 4l10.2-1.1.3-1.5c.7 1 1.4 2 2 3.4.4 2.9 1 5.3 1.9 8.4l-8.1 4.1.5 2.2 10.1 1c.8 0 1.3 0 2 .3l3.8 1.8v1.6l-10.9 2.9v1.8l14.7 2.9c-1.1.8-2.2 1.9-3.5 2.4-3 1-3.8 2.9-2.8 5.8.4 1 .3 2.3.4 3.4z"/><path fill="#401E3D" d="M403.3 202.1c-.4-1.3-.3-2.6-.7-3.6-1-3-.2-4.7 2.8-5.8 1.3-.5 2.4-1.6 3.5-2.4l-14.7-2.9v-1.8l10.8-3v-1.5c-1.1-.5-2.3-1-3.6-2a4 4 0 0 1 2.8-.7c1.5.2 3 .7 4.4 1-.5 1.3-1.2 2.5-1.6 3.7-.3.8-.8 2.2-.4 2.5.7.7 1.9 1 3 1 4 .3 5 2.3 4.5 6.1-.3 2.5 1.4 5.2 2.3 7.8l4.6-1.5c3 2.5 6.8 4.5 4.3 9.6-.2.3 1.3 1.5 2.3 2.4h.4c2.8 3.8 6.4 7.5 2.6 11.6 2.6 5.8 5 11 7.1 16.4.3.6-.8 1.8-1.6 3-9-11.3-17.6-22.7-26.4-34-1.7-2.2-4-3.8-6.4-5.9z"/><path fill="#3C1D37" d="M421 198.6c-1.5 1-3 1.4-4.6 2-.9-2.7-2.6-5.4-2.3-7.9.4-3.8-.6-5.8-4.6-6a5 5 0 0 1-3-1c-.3-.4.2-1.8.5-2.6.4-1.2 1-2.4 1.6-3.6-1.4-.4-2.9-.9-4.4-1.1-.9-.2-1.9 0-3 .4-.6.2-1 .2-1.9-.2.3-3.2.9-6.1 1.5-8.7L395 163l-2.1-3-.3 1.4-10.2 1c2.2-6.3 6-3.7 9.4-3.9l-.8-5.1c3 0 6 0 8.8.7 2.4.5 6 1.2 6.7 2.9 1.3 3-1.2 5-4.3 5.7-.4 0-.6.7-1.3 1.7l5.8 2.8-1.6 4.9 12.6 1.7.3 1.5c-1.5 1.2-3.2 2.2-4.2 3.7-1 1.1-1 2.9-1.5 4.3 1.3.4 2.5 1.2 3.8 1.1a6 6 0 0 1 6 8c-.7 1.8-.7 3.8-1.1 6.2zM389 151.6c-4.4 3-7.7.7-10.2-2a46 46 0 0 1-7.4 1 13 13 0 0 1-1.4-2.6c.9-3.3 2.9-5 6.4-4.3 3.6.7 4.1-.7 3-3.8-.7-1.6-1-3.4-1.4-5.5 3-1 6-2 9-2.3 1.2-.1 3 .5 3.7 1.4.5.7.1 3-.6 3.5-1.3.9-3.1 1-4.8 1.3-.4 0-1-.7-2.4-1.7v5.9c6-1.4 7.4 1 6.1 9z"/><path fill="#401E3D" d="M438.5 225.4c-.3.7-.6 1.4-1 1.5-.7 0-1.5-.3-2.1-.5v-1.3c1 0 2 0 3.1.3z"/><path fill="#311E2D" d="M386.3 128.5c-.7 0-1.3-.2-1.8-.4l.4-.8c.5.3 1 .7 1.4 1.2z"/><path fill="#381F3E" d="M448.5 265.6c-.2.5-.4.7-.7 1l-.4-.3a2 2 0 0 1 1-.7z"/><path fill="#401E3D" d="m428 211 .9-1.5.6.5-1.2 1h-.3z"/><path fill="#283655" d="m77.9 240.8-4.3-.1c-1.2-3 7.7-4.6.6-7l.8-10.3c.5-.9 1.6-1.6 1.6-1.8-2-5 1.4-7.7 4.1-10.8 6.2-7.1 12.3-14.3 18.6-21.3 1.9-2 4.2-3.6 6.6-5.6l-3-4c1.1-1.2 2-3 3.4-3.7 7.4-3.6 14.8-7 22.3-10.4 1-.4 2.4 0 4.4.2 2.2-1 3.6-2 5.4-3 6.1 4 11.9 1 17.6.4 1.5 1.7 3 3 4.4 4.3-4.2 8.4-14.3 14.2-21 11.8 0 .6-.5 1.4-.3 1.8 1.6 3.4.5 5.1-2.7 7-2.4 1.6-3.7 4.9-5.8 7.1a61.8 61.8 0 0 1-7.3 6.7c-4-.4-7.7-.8-11.3-1.5-.3-1-.6-1.6-1-2.2l-.7.3c.2.8.5 1.6.5 2.7-3 2.6-6.5 4.6-8.7 7.5-8.3 10.5-16.2 21.3-24.2 32m57.7-62.6-2.3 1.8 1.3 1c.5-.9 1-1.8 1-2.8z"/><path fill="#2A2D53" d="M156 163c-5.7 1-11.5 4-17.6 0-.4 0-.4 0-.4-.3V161l-.8-2.7c-.4-1.4-1.6-3.4-1-4 .9-1.3 2.8-1.9 4.4-2.6 3.3-1.4 6.8-2.6 10-4.3.8-.4 1.3-3.5.8-3.8-1.3-1-3.1-1.3-4.8-1.5-1.5-.1-3 .4-4.4 0 1-1.2 2-1.7 3.2-2.2l23.9-8.1 3.9-1 2.1-1c3.1-.7 5.8-1.3 8.8-1.8 3.4 2.4 6.6 4.6 9.5 7 1.2 1 2 2.5 3 3.8-3.4 2.2-.2 4.8-1 7.2-5 1.3-6.6 3.9-3.7 8.2-3.7 3-6.2 3.6-19 3.6-1.1.2-2 .7-3.3 1.2l-4 .1-7.5 2.7-.5-1.2-1.6 2.4z"/><path fill="#2B365C" d="M104.3 150.2c8.5-3.8 17.2-7.5 26.3-10.8-.3 2.1-1 3.9-1.6 5.6-6.8 2.3-13.6 4.8-20.5 6.9-1 .3-2.6-1-4.2-1.7z"/><path fill="#3E4172" d="M129.4 145c.3-1.7.9-3.5 1.6-5.6 5.1-2 10.2-3.6 15.6-5-.3 2-1 3.8-1.6 5.5l-2.8 1.8a207 207 0 0 1-12.8 3.3z"/><path fill="#2A2D53" d="M138 163c-1.4 1-2.8 2-4.6 3 .7-1 1.8-2 3.5-3h1.1zM130.4 151.5c-.5-.1-.7-.4-1-.7l.3-.4c.3.3.6.6.7 1z"/><path fill="#283655" d="M138 162.7c-.2.3-.3.3-.8.3 0-.6.1-1.1.6-1.8.2.2.2.7.2 1.5z"/><path fill="#2A2D53" d="M134.5 159.4z"/><path fill="#401E3D" d="M309.7 83c-.9 5.3-4.4 8-11.2 9.2l2.4-8.8c1-.6 1.7-.9 2.8-1l2.6 2.5 1.7-2h1.7z"/><path fill="#341E33" d="M307.8 82.7c-.4 1-1 1.5-1.5 2.2l-2.3-2.5a8 8 0 0 1 3.8.3z"/><path fill="#361E32" d="M370 101.5c.4.5.5 1.1.6 1.7h-1.2c0-.6.2-1.2.6-1.7z"/><path fill="#341E33" d="M329 76.6c-.3-.4-.3-.8-.3-1.2h.5c0 .4 0 .8-.2 1.2zM313 78.6c-.3-.4-.3-.8-.3-1.2h.5c0 .4 0 .8-.2 1.2z"/><path fill="#361E32" d="m388.1 110.9-1.2 1.6-.4-.3 1.3-1.3h.3z"/><path fill="#272142" d="M147.4 107.2c-.3-.5-.3-1.1-.1-1.1 7.2-.5 9.1-7.8 14.2-11 5.2-3.3 10.6-6.3 17-2.2L163.3 97c3.3 2.7 13 .8 24.6-3.8 1.3-.3 2.3-.3 3.8 0-1.6 2.9-3.6 5.3-5.7 8 1.5 1.4 2.8 2.6 4 4A20.9 20.9 0 0 1 177 117c-1.5-2.5-3.2-3.6-6.7-3.3-3.5.3-7.3-1.7-10.9-2.7l-12-3.8z"/><path fill="#57558D" d="M145.4 139.9c.3-1.7 1-3.4 1.6-5.5a427 427 0 0 1 23-9.3l2-1c.5 0 1 0 1.7.4a76 76 0 0 1-9 5.5l4.2 1.8-23.5 8z"/><path fill="#7D72A4" d="m169.3 131.8-4.6-1.8c3.4-1.9 6.3-3.5 9.3-5.4a8 8 0 0 1 3-1.5h1.5c1.4 0 2.5 0 3.6.4 3 .3 6 .3 8.9.6 0 .5 0 .7-.2 1-.5.1-.7.3-1.2.7l-5.8 2c-2.7.7-5.4 1.3-8.6 1.8-1.2.2-1.8.7-2.3 1.1l-3.6 1z"/><path fill="#2A2D53" d="M178 123h-.7c-.3-1.7-.3-3.4-.3-5.6a25 25 0 0 0 13.4-12c2.2-.4 3.9-.4 5.5-.1a29 29 0 0 1-2.2 3.8c-4.8 2.4-7.5 6-9 11l-2 1c-1.8.6-3.2 1.3-4.6 2zM171.9 123.9c-.3.5-.8.8-1.6 1 .3-.4.9-.8 1.6-1z"/><path fill="#21374D" d="M179.9 425.3c2.1-2 4.2-3.8 6-5.7 1.3-1.2 2.3-2.7 3.4-4l1.6 1-1.7 4c-.8 1-1.4 1.4-2.3 2.1l5.6 3.3 5.5 3-2 4.6-1.7 5.1c-1.4-.7-3.2-1-4-2.1-2.7-3.4-6.3-2.3-9.7-2.6-1.8-.2-3.6-.8-5.4-1.2l2.9-5.3c.4-.7 1-1.3 1.8-2.2zM159.4 428l-2-1c-.5-1.5-.8-3-1.2-5.3l7.9 3.5a40 40 0 0 1-4.7 2.8z"/><path fill="#F9F9FA" d="M77.7 241.2c8.2-11 16.1-21.8 24.4-32.3 2.2-2.9 5.6-4.9 9-7.5l.9-.5c3.6.4 7.3.8 11.5 1.5 3.1 2.8 5.6 5.3 8.2 8l9.5 13 12.8 17c1.2 1.7 2.7 3 3.3 4.7 1 2.6 2.4 5.8 1.6 8-.7 1.7-4.5 2.2-7.2 3a266.4 266.4 0 0 1-20.5-25.6c-3.5-4.8-6.8-9.7-10.5-14.4-3.4-4.3-5.6-4.2-9 .2l-25 33.2c-2.7 2.5-5.4 4.7-8.4 7-7-1.3-8-8-.6-15.3z"/><path fill="#2A456D" d="M131 230.8c4.2 4.8 8.1 10 12 15.7-4.2 2-7 4.2-7.1 8.9 0 1-1 2-1.7 3-9.4 10.8-18 22.3-22.8 36-2.2 6-6.6 10-10.6 14.4-1.6 1.8-2.6 4.1-4 6.4-.2.5-.5.7-1.2.8a131.6 131.6 0 0 1-19.3 15c1.8-2.5 3.7-5.1 5.9-7.5 6.2-6.8 12.9-13.2 18.8-20.2 3.5-4.2 2.8-13.4.8-15.7l1.5-17.3c.2-2.2.3-4.7 1.5-6.4 4.2-6 4.4-6 3.8-11.4l5-1.6c4 .5 7-.5 9-3.6 2.4-3.6 1.3-7-1.1-10 4.2-.4 6.5-3.6 9.5-6.5z"/><path fill="#F8F7F8" d="M121.2 237.1c2.7 3.3 3.8 6.6 1.4 10.2-2 3.1-5 4.1-9 3.2-5-3.6-6.2-7.6-4-11.4 2.3-3.7 6.2-4.4 11.6-2z"/><path fill="#2A456D" d="M98.4 300c.4-.3.7-.4 1-.4v.7c-.3 0-.7 0-1-.4zM97.4 297.5s0 .1 0 0z"/><path fill="#331F38" d="M255.6 80c.4.7.4 1.5 0 2.6-3.3 1.4-7.2 1.5-8.8 3.5-4.4 5.5-11 3.9-16.5 7.5v-6.8c-3.2 1.5-6.3 2.8-9.7 4.2a148 148 0 0 1-7.6-4l10.1-4c1-.5 1.8-1.3 2.7-2l-2.6-2.7c1.4-1 3-1.7 4.6-2.5l3.5-2.3c2.6-1.8 5.2-3.3 8.7-.6l-3.6 2.8c-.1 2.7 2.8 2.7 4.6 0l1-1.7 13.6 6m-35 7.3-.8-.9-.4.4c.3.3.5.5 1.2.5zM209 75.6l-1.5 7.7c-3-3-5.2-5.2-7.5-8 3-.2 5.9-.1 9 .3z"/><path fill="#311E2D" d="M252.1 69a35 35 0 0 1 5.3-.9c-1 1.4-1.8 3.5-3.1 4-3 1.4-3.6-.2-2.2-3.1zM291.6 68.4c0-1.2.3-2.2.6-3.2l2 1c-.8.8-1.6 1.6-2.6 2.2zM261.4 72.3c.1-.8.5-1.4.8-2l1.2 1.3c-.6.3-1.2.6-2 .7z"/><path fill="#341E33" d="m267 73-2.2-1.6 1.2-1c.4.7.8 1.4 1.1 2.3l-.1.3z"/><path fill="#331F38" d="M221.6 78c-.6.2-1.5.4-2.6.3.7-.3 1.5-.3 2.6-.3z"/><path fill="#311E2D" d="M293.7 71.4v-1l.7.2c-.2.2-.3.5-.7.8z"/><path fill="#223249" d="M300 420c.4 2.7-4.8 4.3-1.2 7.7-4.5-.4-9.3-1-14-1.7l-35.5-5.8c-5.6-1-11.3-2.7-17-3-5.7-.2-11.4.9-17.8 1.4-2.4-4.3-8-2.7-12.7-3.6-2.7-.5-6.3 1.6-7.8-3.3 0-1.7.1-2.7.6-3.7 3.6 0 6.9 0 10.2.4l.7 3.4.8-1.3c1.4.4 2.8 1 4.2 1 .7 0 1.5-.7 2.6-1.5 3-1 5.8-1.6 8.7-2 1 4.1 4 4.2 6.8 4 3.4-.4 5.3-2.5 6-6 3.2.3 6 .6 8.9 1.3 1 1.5-1.8 5.5 3.1 3.7l3.7.1c1.4 0 2.5-.2 3.6 0 1.1 1.2 2 2.4 3.1 2.6 4.8 1 9.7 1.5 14.5 2.3 7.5 1.3 15 2.7 22.5 4.3l1.3 1.3c.2-.6.5-1 1.1-1.6h3.6z"/><path fill="#254462" d="M179.4 415c-.4-.8-.4-1.6-.2-3 5-5.5-1-6.8-3.3-9.6l5.2.5c3.6.7 6.8 1.4 10 2.5l.4 6.2c-3.9 1.2-7.8 2.3-12.1 3.4z"/><path fill="#D3D7DF" d="M191.8 411.7c-.4-2-.5-4-.6-6.7-.6-2-1.3-3.3-2.7-6.2 3.4 1 5.6 1.6 7.6 2.5l-1.9 6.7-.3 3.3c-.6.4-1.2.4-2 .4z"/><path fill="#223249" d="M310 429.4c0-1.8.2-3.3.3-5h5.1l-.4 6.2c-1.6 0-3.2-.4-5-1.2zM300.2 428.2c.4 0 1 0 1.8.5-.6.1-1.1 0-1.8-.5z"/><path fill="#263551" d="M300.4 420H294l-22.5-4c-4.8-.8-9.7-1.3-14.5-2.3-1.1-.2-2-1.4-3.1-3 0-2.8 0-4.7.5-6.7 3.5.9 6.7 1.7 9.6 2.8-.8 1.6-1.4 3-2.2 5.2 1.6-.4 3-.3 3.5-1 2.2-3.2 4.2-3.5 6.4 0 0 .1 1.6-.7 2.8-1 3.6.6 6.7 1.2 10.2 2 4.2.5 6.9-.8 7.8-5 3.4-.8 6.4-1.5 9.4-2 0 1.3-.1 2.2.1 3 .4 1.2 1.1 2.5 1.7 3.7l1.3-3.6c.6-1.7 1.2-3.5 2.2-5 3.1 0 5.9 0 8.7.4l.4 8.5h2.3a89 89 0 0 1 1-10c4.4-.8 8.5-1.7 12.3-2.3l-4.8 5.6 2.2 5.5-29 9.2z"/><path fill="#D3D7DF" d="M329.7 410.8c-1-1.6-1.7-3.2-2.6-5.5a64 64 0 0 1 5-5.6c3 .7 5.5 1.5 7.9 2.3l-3.3.7c-1.8.4-3.7.4-5.2 1.2-.5.4-.4 3.4.3 4 1.3.8 3.2.6 4.9.8.9 0 1.8-.2 3 0-2.4 4.2-5.9 3.8-10 2.1zM349 408.3c1.4-3.1 3-6 5.2-10l3 5.6 3 7.9c-6.8-2.6-6.8-2.6-11.2.2v-3.7z"/><path fill="#432348" d="M391.9 216.7c3.7-4.8 4.7-5 8.4-.4 8.4 10.6 16.6 21.4 25 32.5 1.2 3.3 2.5 6.2 3.4 9.3.5 2 3.3 4.2 0 6.4-.6.4-.5 1.8-.7 3.1-1.5-.2-3.3-.5-4.3-1.5-2.3-2.4-4.8-3.3-8.6-2.3-1.7-3.4-2.4-6.8-4-9.6-2-3-4.8-5.5-7.2-8.6.7-5.9-1.8-9-7-10.8l.4-12.8-5.4-5.3m14.4 16.7-.9.9.4.3c.3-.3.6-.5.5-1.2m-8.5-14.6-.5.2c.1 0 .3 0 .5-.2z"/><path fill="#41244E" d="M404 246c2.3 2.7 5.2 5.2 7 8.2 1.7 2.8 2.4 6.2 3.7 9.6 1 8.8 1.7 17.4 2.3 26 .3 3.9.4 7.8.3 12-.9-2.6-1.3-5.4-2-8.1-.4-1.2-1.6-2-2-3.2-1.1-2.6-2-5.4-2.4-8.4.3-.5.2-.8 0-1.1-1-.3-2.1-.6-3.6-1.3L405 278l-2.7-4.3c.2-3.9-.4-6.7-2.5-9.8-2.6-4-4-8.7-5.4-13.1 4.7.8 7.3-1.6 9.5-4.8z"/><path fill="#2A3F60" d="M87 268.4c.3.4.3.8.3 1.2h-.5c0-.4 0-.8.2-1.2zM84 314l-1.3-.4c.3 0 .7 0 1.2.2l.1.2z"/><path fill="#2A3759" d="m340.3 402-7.8-2.5c-4.4.8-8.5 1.7-13 2.1l-2.6-1.6-1 3c-2.8 0-5.6.2-8.6-.3-1.5-5.5-5-1.4-7.5-3l2 5c-3 .8-5.9 1.5-9.4 1.9-.7-2.6-.8-4.8-1-7h-1.7l-1.3 9.7h-1.8l-1.2-9.7-2.2.2 1 12-9.9-2.1a35.4 35.4 0 0 1-3.4-8.4c9.2-2.9 18.2-5.5 27.2-7.7 4.6-1.2 9.5-1.4 14.1-2.7 5.5-1.6 10.9-4 16.6-5.7 5.6 3 8 2.4 10.4-2.1 3.6 0 6.8.2 10 .6l-.4 3c3.8-4.3 7.2-4 10.7 1.2l.4-1.6c-.5-1.8-1.1-3.5-1.3-5.3l35.4-6v.8c-2.4 1.9-4.6 3.8-7.2 5.1-2.5 1.3-5.4 2-8.7 2.8-5.1-3-3.8 3-6.2 3.5l1.1 3.8a154 154 0 0 0-32.7 11z"/><path fill="#2C3A63" d="M373.3 391.2c-.7-1.5-1-2.7-1.4-4 2.4-.5 1.1-6.5 5.9-3.5l4.2 4.3c1.3 1.2 3.2 2.1 3.8 3.6.8 2.2 1 4.8 1 7.2 0 1-.7 2.3-1.5 2.7-.7.4-2.2 0-3-.6-2-1.6-3.6-3.5-5.4-5.3l-1 1c-.8-1.7-1.5-3.5-2.6-5.4z"/><path fill="#452857" d="M394 250.8c1.9 4.4 3.2 9.2 5.8 13.1 2.1 3.1 2.7 6 2.2 9.7-6 2-1.6 5.3-2 7.5-2.7 4-5.3 8.1-8.3 12.4-4.2-3.2-3.8-7-1.3-9.9-2.2-1.8-5.1-3-5.8-4.9a81.8 81.8 0 0 0-11.5-21.1c-2-2.8-3.5-6-5.2-9 3.2-4.4 6.4-8.8 10.3-13.4 2.4 2 4.5 3.8 5.7 6.2 1.2 2.4 1.3 5.3 5.3 4.8l4.8 4.6z"/><path fill="#453163" d="M367.6 248.8c2 2.8 3.5 6 5.5 8.8a81.8 81.8 0 0 1 11.5 21.1c.7 2 3.6 3.1 5.8 5-2.5 2.9-2.9 6.6 1.3 10.1 1.5 1.3 2.5 3 3.9 3.3 4.8 1.4 7.2 5.1 9.4 9.5 0 .4 0 .4-.3.4-2.6-.6-5.1-.7-7-1.9-4.2-2.8-8.2-6-12-9.4a184 184 0 0 1-14.3-13c-2-2-2.6-5.3-4-7.9l-10.6-18.4c5.8.8 7.6-4 10.8-7.6z"/><path fill="#452857" d="M400.4 292c.4-.3.8-.3 1.2-.3v.5a2 2 0 0 1-1.2-.2zM405 278.3c.6.1 1.3.6 2 1.4-.6-.2-1.3-.6-2-1.4zM411 281.3l.2.6c-.2.1-.2-.4-.2-.6z"/><path fill="#392248" d="M212.7 87c2.7 1.3 5.1 2.7 8 4.3 1.2 1.8 1.7 3.2 2 5-1.3.7-2.5 1.2-4 1.6-4.5-2.8-9-4-13.2-1.4-3.6 2.3-6.4 5.6-9.5 8.5h-5.6a41 41 0 0 1-4.5-3.6l6-8c.8-1 1.7-2.3 2.2-2.2 4.8 1.6 8.5-.7 12.9-3.2 1.8-.3 3-.7 4-1h1.7z"/><path fill="#331F38" d="M210.8 86.7c-.9.6-2 1-3.4 1.3.8-.5 2-1 3.4-1.3z"/><path fill="#2A456D" d="m172.9 409-8.8-1.3a24 24 0 0 1-3.3-7.8c4.6.5 8.7.9 12.8 1.6 1.3 2.7 2.8 5 4 7.1l-4.7.4z"/><path fill="#D9DEE5" d="M160.3 400c1 2.4 2 5 3.4 7.7.5 1.5.7 2.6 1 4.3-1.1-.3-2-.3-2.3-.7-2-3-4-4.3-6.5-.3-.2.2-1.7-.4-2.5-1l3.8-8.8a5 5 0 0 1 1.6-1.8l1.5.5z"/><path fill="#D3D7DF" d="M173 409.3c1.4-.4 3-.5 4.7-.7-1.3-2-2.8-4.4-4-7.3 2.6-2.8 4.7-2.2 6.8.1l.2 1.5-4.8-.5c2.4 2.8 8.3 4.1 3.3 9.2-2.1-.5-4.1-1.2-6.2-2.3z"/><path fill="#2F649C" d="M88.1 346.2c2.4-2 5-3.8 8.1-5.9 5.3-2.7 10-5 14.8-7 .5 1 .8 2.3 1.5 2.5 5 1.4 14.4-2 17.7-6 1-1.2 2.5-1.9 4-2.5 1.4.7 2.6 1.2 3.7 2-1 1.8-2 3.2-3.2 4.8l-8.3.6v1.4l2.3 2-.1 1.3c-2.3 0-5.1-.8-6.7.2-3.8 2.3-7 2.5-11 .8-.8-.4-2.5 1.5-3.8 2.3.7 1 1.3 2.5 2.2 2.8 4.9 1.3 9.8 2.4 14.8 3.8 1 1.5 2 2.6 2.5 3.7l-13 5-3.8-1h-.8a41.7 41.7 0 0 1-20.9-10.8z"/><path fill="#264B70" d="M110 357c1.1.3 2.2.6 3.7 1.3 4 2.3 7.6 4.1 11.8 6.3l3.6-1.4-.2 1.6c2 .7 4 1.5 6 2.5-.3 1.1-.6 2-1.2 2.9-.7 1.7-1.2 3.3-2 4.8a31 31 0 0 0-2.7 1c-4.5-4-9.1-4-13.6-.7-.6.4-3-.3-3-.5-.4-5.4-5.1-4.3-8-5.7-1.3-.6-2.7-1-4.2-1.8 2.2-1.7 4.7-2.9 7-4.5a12 12 0 0 0 3.1-4.8c-.3-.5-.3-1-.3-1z"/><path fill="#265587" d="M109.8 357c.2 0 .2.5.2.7-.3.2-.6 0-.9-.5 0-.2.2-.2.7-.2z"/><path fill="#264B70" d="M180.5 401.1c-2-2-4.2-2.6-6.7-.1-4.3-.2-8.4-.6-13-1-1-.2-1.4-.3-2.4-.8-8.8-2.2-16.9-4.3-25.1-6-1.6-.3-3.5 1.2-5.3 1.8-1-.8-2-1.5-3-2.6l2-7c.3-.5.6-.7 1.3-1.1 8.7 1.3 16.9 2.8 25 4.2 7 1.3 13.8 2.3 21 3.5 3.8 2.4 7 4.8 11.3 7.8l-5.1 1.3z"/><path fill="#2A456D" d="M128.4 395c1.4-.6 3.3-2.1 4.9-1.8 8.2 1.7 16.3 3.8 25 5.9 0 .6-.4 1-1 1.7-8.3-1.5-16.3-3.1-24.2-4.8l-4.7-1z"/><path fill="#2C3A63" d="M394 374.7a616.7 616.7 0 0 1-35.6 6c-1.3-2-2-3.8-2.4-5.6 8.8-3.5 17.3-7 25.6-10.5 2-.9 3.6-2.4 5.8-3.6 1.8 0 3.2 0 4.6.4-1.4 4.5-1.3 8.3 2 11.6v1.7z"/><path fill="#3E4172" d="M394.4 373c-3.7-3.3-3.8-7-2-11.7.7-1.4 1.2-2.3 2-3.3l14.9-4h.7c.9 1.1 2 2 2.5 3.3 1 2.8 2.2 5.8 2 8.6 0 1.1-3.4 2.4-5.5 3-4.7 1.6-9.5 2.8-14.6 4z"/><path fill="#464578" d="M409 354c-4.7 1.3-9.4 2.7-14.6 3.7-1.6-.4-2.8-.5-3-.5-.5-2.9-1-5.5-1-8.2 5.6-.3 12.4-5 13.6-9 1.6.4 3.2.7 4.6 1.3 9 3.7 9 3.7 4.4 12.3-.8.4-1.5.4-2.6.4-.4 0-.4 0-.5-.2-.3 0-.6 0-.9.2z"/><path fill="#494A80" d="M403.8 339.7c-1 4.4-7.8 9-13.7 9.2-1.1-.4-1.6-.6-2.1-1.3a59.8 59.8 0 0 0-5.4-6.3c-.7-.8-2-1.2-2.9-1.9-1-.7-1.8-1.6-2.8-2.8-5.8-.8-11.6-1.2-17.8-1.7l-5-1.4 5.6-2.7-5.4-2.5 5-2-.2-1h-7c0 2.4-.2 4.6-.7 6.7-3 .4-5.7.7-8.4.6v-7.8c0-1.2 0-2 .4-2.8 6-1 11.7-2 17.3-3.2.9-.2 1.5-1.8 2.7-2.7l5.9 2 3.7 1.9c4.7 2 9.4 4 13.9 6.2-1.4 2.2-3.6 4.1 0 5.7 4 1.8 8 3.4 12.1 5.1l4.8 2.7z"/><path fill="#7D84BA" d="M424.8 341.8c.5 1.3.8 2.5 1.2 4a99 99 0 0 1-12.8-7.5c-1.5-3-2.6-6.4-4.9-8-3.3-2.4-7.5-3.6-11.4-5.5l-.9-1.2c0-1.1 0-1.9.4-2.6 2.4 1 4.5 2 6.7 3.2.3.5.6.7 1 1.1 1.4.8 2.7 1.2 3.9 1.7a234.6 234.6 0 0 1 15 14c.6.2 1.1.3 1.8.8z"/><path fill="#464578" d="M399 336.6c-4-1.3-8.1-2.9-12.1-4.7-3.6-1.6-1.4-3.5.3-5.6 4 1 7.3 2.5 10.8 4.1l2 1.7-1 4.5z"/><path fill="#8B93C1" d="M400.3 332.1c-1-.5-1.5-1-2-1.9L397 325c3.8 1.7 8 2.9 11.3 5.3 2.3 1.6 3.4 5 4.7 7.7-4.3-1.8-8.3-3.8-12.7-5.9z"/><path fill="#26517C" d="M174 392c-6.9-1.2-13.8-2.2-20.7-3.5l-24.9-4.5c0-2.4.2-4.9.6-7.6a4 4 0 0 1 2.7-1c6.9 5.4 14.7 6.5 22.4 8l-.6 5c3.7-5 6.7-5.8 9.8-1.7 0 .1 1-.5 2-.7l10.4.8c.1 0 .4.3.3.6l-2 4.6z"/><path fill="#4478B4" d="M94.4 330c1.3-2.4 3-4.9 4.8-7.9.7-.8 1.2-1 2-1 1.2.2 2.2.6 2.7.3 5.4-3.4 10.8-6.7 15.9-10.5 1.2-.9 1.4-3.3 2.2-5.2a144.2 144.2 0 0 0 14.5-4.8c6.3-2.3 11.1-8 18.5-8v.1c-1.8 1.7-3.4 3.8-5.5 5-7.4 3.9-15.2 7.1-22.3 11.4-9.8 5.9-19 12.5-28.5 18.7-1.2.8-2.6 1.3-4.3 1.9z"/><path fill="#6694CA" d="m140 308-.9-1.7c.7-.6 1.4-1 2.9-1.3a6.1 6.1 0 0 0 2-2c3.7-1.7 7.5-3.2 11-5.2 1-.6 1.3-2.7 2-4.7.5-.8.7-1 1.3-1.1.8 0 1.3 0 1.7.4-.2 5.2 2.8 2.8 4.6 2.2 8.5-2.8 17-5.7 25.3-8.3-.6.9-1.2 1.5-1.8 1.8-7 3-14 6-21.5 8.9-1.2.2-2 .3-2.8.6L140 308z"/><path fill="#4478B4" d="M158 292a6 6 0 0 0-1 .7c-.5.3-1 .3-1.7.3-.3 0-.3 0-.3-.4 1-1.1 2-1.9 3-2.3v1.6z"/><path fill="#5993C9" d="M143.7 303c-.2.6-.6 1.3-1.4 2 .1-.6.6-1.3 1.4-2z"/><path fill="#6DA7D6" d="M139.8 308.3c8.1-3.8 16-7.3 24-10.7.8-.3 1.6-.4 2.8-.4.4.5.4.6 0 1-10.7 5.3-21.1 10.6-32 15.8-7 4.2-14 8.1-20.5 12.5-1.6 1-2.1 3.6-3.1 5.7v.6c-4.8 2.4-9.5 4.8-14.6 7.2 0-1.2 0-3.1 1-3.7 11.5-8.1 23.3-16 35.6-24.2a8.3 8.3 0 0 0 2-2.1l4.8-1.7z"/><path fill="#6694CA" d="M134.7 310c-.1.6-.6 1.3-1.4 2 .2-.6.6-1.3 1.4-2z"/><path fill="#4B3B70" d="M356.7 256.3a1012 1012 0 0 1 10.7 18.5c1.4 2.6 2 5.9 4 8a184 184 0 0 0 26.4 22.3c1.8 1.2 4.3 1.3 6.9 2 0 1-.4 2.1-.7 3.5-.7.4-1.5.4-2.8.1-1-.4-1.6-.5-2.5-.7-.2 0-.7 0-.7-.4-2-2-4-3.8-6-6a6.7 6.7 0 0 0-2.4-1.6l-9-3c-.7 0-1 0-1.5-.3v-1.1c-4-5.2-8.4-9.3-15.2-9.8l-1-1.2c-2.5-2.6-5.4-4.6-7.6-7.2-4-4.7-7.8-9.7-11.1-15-1.5-2.3-1.5-5.6-2-8.7 1.1-1.7 2-3.2 3.3-4.7l4.8 2.8c1.6.8 3.4 1.4 5.1 2 .4.2.8.2 1.3.5m-12 2.5-1.1-.2v.8c.3 0 .7 0 1-.6z"/><path fill="#5F588F" d="M379 298v1c1.7 1.8 3.4 2.9 5 4v.3c3.7 2.8 7.3 5.4 11 7.6 1 .5 2.7-.6 4-1l1.9.8c.1.7.1 1.2-.2 2-.3 1-.6 2-.3 2.4 1.4 1.7 3 3.3 4.6 4.9h-.4c-1.4-.5-2.5-.8-3.4-1.4-10.3-6.2-20.5-12.5-30.7-18.9a163 163 0 0 1-10.2-6.7c.8-1 1.3-2 2-3 .8-.4 1.2-.7 2-.8.4.7.6 1.2.7 2.1 2.6 4.5 6.2 6.5 11.4 6.7h2.6z"/><path fill="#534C84" d="M405 320c-1.5-1.6-3.2-3.2-4.6-4.9-.3-.4 0-1.3.3-2 3.4 2 6.8 3.7 9.6 6.1a354 354 0 0 1 16.7 15.4c-1.9-.3-4-.8-5.6-1.9-2.4-1.5-4.5-3.6-7.1-5.9-3.3-2.6-6.3-4.7-9.3-6.8z"/><path fill="#2E5C97" d="m123 305-1.3.8c-4.1 2.4-8 4.3-11.4 6.8-3.4 2.4-6.2 5.6-9.3 8.4a8 8 0 0 0-1.8.7c-2.4 1.1-4.6 2-7 2.2a9.6 9.6 0 0 1 2.2-4c7.4-4.7 14.4-9.7 21.6-14.2 4.1-2.6 8.7-4.5 13-6.4-2 2.1-4 3.9-6 5.6z"/><path fill="#29538A" d="m94 320-2 3.7c-1.7.6-3.5 1-5.6 1.3h-1.2c1.7-1.5 3.6-3 6-4.7 1.3-.3 2-.3 2.8-.3z"/><path fill="#5F588F" d="M405 320c3 2 6 4.2 9 6.6-1.7-.3-3.5-1-5.6-2-1.1-.7-1.8-1.2-2.5-1.9l-1-2.7h.1z"/><path fill="#6F75B0" d="M406 323c.6.4 1.3.9 2 1.6v2a6.7 6.7 0 0 1-3.6-1.4c.6-1 1.1-1.6 1.6-2.2z"/><path fill="#7D72A4" d="M423 340.7c-.6-.2-1.3-.6-2-1.4.7.1 1.3.6 2 1.4z"/><path fill="#48234D" d="M387.1 203.2c-3 3.4-6 6.8-9.5 10.5-5.4-.6-3.1-3.5-2.1-6l-1.4-.7c-7.8-2.4-12.8-7-13.3-15.8 0-1.1-2.6-2.3-4.2-3.1-2.4-1.5-5.3-2.2-7.5-4-3.5-2.8-6.4-6.3-9.8-9.4-1.5-1.3-4-1.8-5-3.4-3.8-6.4-9.6-7-16.1-6.6-2 0-4.2-1-6.2-1.5l.2-2h8.2l1.5-3.2c-2-2-4-3.1-5-5-1.5-2.7-3.3-4-7.4-3.4l4 3.4c-2 4.2-5 5-8.8 2.4-1-.7-2.5-1-4-1.5-6-2.5-6.5-11.7-14.5-11 0 0-.1-.6.2-1l7.8-5.2c-4.3-.8-7-1-9.4-1.8-2.6-.8-5.9-1-5.4-4.9 6-.2 12 3.6 16.8-2h.5l6.5-3c-.1-.2.8.4 1.9 1.3 3.5 3.4 4.5 7 1.4 12.1l22.1 4.6c0 5.4 4 8.3 8.5 11.3 3.6 2.8 7.3 5.3 11 8 .6 1.2 1.2 2 2 3 12.3 12.9 24.7 25.4 37 38m-16.5-4.8s-.1 0 0 0z"/><path fill="#472A5B" d="M364.7 231.9a52.6 52.6 0 0 1-5.1 6.5c-4.3-5-8-9.8-12.1-14.3-3-3.3-6.2-6.6-9.8-9-4.6-3.2-9.7-5.5-15-8.1-.3 0-.5 0-.7-.4-1.6-2.4-4.7-4.6-4.4-6.3 1-7.4-4.3-5.5-7.9-6.3-1.2-.3-2.7-.2-3.8-.8l-9.2-5.5c1.5-4 .6-5.2-4.4-4.7-1.4.2-2.9.7-4.6 1-.8 0-1.3 0-2-.2-3.4-6.7-9-9.5-16-10.8-.2 0-.7 0-.8-.2a90.5 90.5 0 0 1-10.7-8c6-2.3 11.4-5.4 18.1-3.7 1.2 1.3 2.3 2.4 3 3.7 1.3 3 2.6 6 6.6 5.2 2-.4 4-1.5 6.1-1.7 1.5-.2 3 .7 4.5 1-.4 1.1-1 2.1-1.3 3.2-.3 1-.7 2.3-.2 3 .5.8 1.8 1.1 2.8 1.3 1.8.4 3.7.6 5.6.8l10.3 1 5.3 6-4.6 1.6c2.5 2 4.3 3.7 6.3 5 1.3 1 3 1.3 4.1 2.3 3.6 3 6.6 7.2 12.4 4.8 1 .4 2 .5 2.8 1 1.6 6 4.2 10.7 10 12.7.6.2 1.3.5 1.7 1l13 18.9m-11.1-5.4s-.1 0 0 0z"/><path fill="#471F45" d="M350 165a7 7 0 0 1-1.7-2.8 179 179 0 0 1 10.7-6.7c.5-2.5-3.2-2.3-5.3-2.3-5.5-.1-11.1.5-16.7.8-4.4-2.7-8.5-5.6-8.4-11l-22-4.6c3-5.1 2-8.7-1.4-12.3a5 5 0 0 1 2.2-2.1c4.5 0 8.5-.2 12.5.1.9.1 2.3 2.4 2.2 3.5-.2 3.3 1 4 3.7 2.9l5.2-2.5 4-.7c0 3.5.6 7-.2 10-1.3 5 1.7 5.4 4.7 4.5 4.4-1.2 8 .1 12 1.4 3.7 1.2 5.6 2.7 3.4 6.7 5.6 3.8 10.1 2 14.7-1.9.7.8 1 1.6 1.4 2.7-3.5 2.7-7 5-10.2 7.1 4 6.8 8.7 8.3 14.6 6.2a4 4 0 0 1 2.5 0c1.3.5 2.5 1.3 3.8 2l-2.2 3.3-2.2 2.6 9.6-.5-4.2 9 15 12.3-.7 5.2v2.1c-2 .5-4 1-6.5 1-.8-5.6-2.1-9.9-8.5-10v-.4c-1-4-2.6-7.6-2.8-11.2-.4-5.6-4.3-6.2-8-5.8-4.2.5-6.2-1-8.5-4.2-1.6-2.2-5-3-7.7-4.7-1-.1-2 0-3.3.3H350m41.6 31.5s-.1 0 0 0z"/><path fill="#492553" d="M340 199c-.9-.2-1.7-.3-2.8-1.1.2-3.6.6-6.6 1-9.9l-7-3.1c-1.4-.7-3.6-1.6-3.8-2.8-1.7-6.3-6.3-8.7-12-10.3a5.8 5.8 0 0 1-3.3-3.2c-1.3-3.8-2.4-7.2-6.9-8.8-1.9-.7-2.8-3.8-4.2-5.8 1.2.4 2.6.7 3.7 1.4 3.9 2.5 6.8 1.8 8.8-2.4l-4-3.4c4.1-.7 5.9.7 7.4 3.5 1 1.8 3 3 5 4.9l-1.5 3.2h-8.2l-.2 2c2 .5 4.1 1.6 6.2 1.5 6.5-.3 12.3.2 16.1 6.6 1 1.6 3.5 2 5 3.4 3.4 3 6.3 6.6 9.8 9.4 2.2 1.8 5 2.5 7.5 4 1.6.8 4.1 2 4.2 3.1.5 8.7 5.5 13.4 13.3 15.8l1.4.7c-1 2.5-3.3 5.4 1.9 6.3-1.3 2.3-3 4.6-5.2 6.7-3.7-2.5-7.2-4.5-9.9-7.3-4.2-4.5-7.7-9.7-12-14.2-1.8-2-4.7-3.1-6.6-4.3L340 199z"/><path fill="#492E62" d="M288 184c1.4-.3 2.9-.8 4.3-1 5-.5 5.9.6 4.4 4.7 3.2 2 6.1 3.8 9.2 5.5 1.1.6 2.6.5 3.8.8 3.6.8 9-1 7.9 6.3-.3 1.7 2.8 3.9 4.4 6.6l-.4 4.5 1 .1.4-4.5c5 2.6 10.1 5 14.7 8 3.6 2.5 6.8 5.8 9.8 9 4 4.6 7.8 9.5 11.8 14.6a25 25 0 0 1-4.4 6.2 17.8 17.8 0 0 1-3.8-4c-.7-1-1.2-2.1-2.1-2.9-4.4-3.6-9-7-13.2-10.8-1.7-1.4-2.7-3.5-3.8-5.5-1.6-2.8-8.2-6.3-11.3-5.8-4.8-6-8.2-13-16-15.5.4-1 .5-1.8.7-2.6l-1-.1c-.1 1-.2 2-.7 3.1-1.1 0-2-.2-2.7-.7-1.8-2-3.5-3.5-5.2-5-3.3-3-6.5-6-9.5-9 .8-.7 1.2-1.4 1.7-2m47.4 38.5s.1-.1 0 0z"/><path fill="#462555" d="M340 199.4c1-1.5 2-2.6 3.7-4.5 2 1.2 4.8 2.3 6.7 4.3 4.2 4.5 7.7 9.7 12 14.2 2.6 2.8 6.1 4.8 9.5 7.5a121 121 0 0 1-7 10.7c-4.6-6-8.9-12.4-13.2-18.7-.4-.4-1.1-.7-1.7-.9-5.8-2-8.4-6.7-10-12.6m5.4 3.3.9.9.3-.4c-.3-.3-.5-.6-1.2-.5z"/><path fill="#4A2048" d="M355 165c2.6 1.4 6 2.2 7.7 4.4 2.3 3.1 4.3 4.7 8.5 4.2 3.7-.4 7.6.2 8 5.8.2 3.6 1.8 7.2 2.5 11.2l-1.1 2.4 1.2.3.2-2.3c6.4.1 7.7 4.4 8 10-.7 1-1.5 1.6-2.6 2.2-12.6-12.5-25-25-37.4-37.9.4-.3.9-.3 2-.3h3z"/><path fill="#4F386C" d="M321 216c2.8-.7 9.4 2.8 11 5.6 1 2 2.1 4.1 3.8 5.5 4.2 3.8 8.8 7.2 13.2 10.8.9.8 1.4 2 2.1 2.9 1 1.4 2.1 2.7 3.5 4.1-2.5 3.5-4.5 7 .6 10.7-1.5-.4-3.3-1-4.9-1.8-1.5-.8-3-1.9-4.8-3.2-1.5-2.2-2.2-4.2-3.4-6L321 216z"/><path fill="#492553" d="M389 246c-3.8.7-4-2.2-5-4.6-1.3-2.4-3.4-4.3-5.5-6.4 4-6 8.4-12 13-18.1 2.5 1.9 4.6 4 5.8 5.1-.1 4.5-.2 8.4-.7 12.9-7.3 1.9-7.9 2.6-7.6 11.1z"/><path fill="#4A2048" d="M397.3 200.2c-.3-.6-.3-1-.3-1.9.6.3 1.3 1 1.8 1.9-.4.3-.8.2-1.5 0z"/><path fill="#3A1E3E" d="m223 96-1.8-4.7c2.8-1.7 5.9-3 9-4.5v6.8c5.6-3.6 12.2-2 16.6-7.5 1.6-2 5.5-2.1 8.8-3.1h13c-3.3-4.6-2.2-6.8-.1-7.3l15 6 .4 1.3-14.6 3.8c-.7 3.1-.2 5 4 3.7 2.1-.7 4.4-1 6.7-1.5l7-.9c-.8 1.5-1.2 2.4-2.2 3.6-4 4-9.7 6-9.5 12.5 3.7 3.1 6.7-5.6 10.4-1.1-2.4 2.4-4.6 4.7-7.1 6.9-3.4 1.1-6.4 2.2-9.4 3.4l.4 1c-1.2-.5-2.4-1-3.7-1.8l-.7-4.8c-.3-2.5.2-5.7-1.2-7.2-1.8-2-3.4.2-4.8 2.2-.8 1.2-3.2 1.5-4.9 1.8-1.8.4-3.7.4-5.7.6-2-4.5-5.8-5.7-12.2-3.3-2.5 1-4.3 1.2-4.3-2.1 0-3.7-2.4-4-5.2-4a1110.3 1110.3 0 0 0-3.9.2m41.6-8-1 2.5h2.7c-.3-.8-.6-1.6-1.7-2.4z"/><path fill="#421D3F" d="m279 110 6.7-7c-3.7-4.4-6.7 4.3-10.4 1.2-.2-6.4 5.5-8.5 9.4-12.2 2 2.4 3.6 4.8 5.3 8v2.3a9 9 0 0 0 2.3 1.8l11.3 8c4.7-2.6-5-4.6-3.2-6.3 4.6-1.4 7.8-2.8 11.1-3.3 3.4-.5 6.8-.1 11-.1 3.5 4.8-4.9 4.4-5.2 9.4l6.7-2.8c.7 0 1.5 0 2.6.4-.2 1.9-.7 3.5-1.2 5l1 1 3.6-3.4c.2 0 .3 0 .8.3l1.7 4-3.8 5.9c.6 1.4 1.5 2.6 2.3 3.8v1.7a28 28 0 0 1-5.2 2.8c-2.8 1-4 .4-3.7-2.9.1-1.1-1.3-3.4-2.2-3.5-4-.3-8-.1-12.6-.4a6 6 0 0 1-2.3-2c1.5-1.5 2.8-2.7 4.2-3.7l4-2.2c-7.7-2.6-10.5-1.6-13.7 3.2l-11.6-1c0-3.3.8-6.2-.2-7.9-1.7-2.7-4.7-2.8-7.3-.4-.3.3-1 .2-1.4.3m32.8 9.4v1.2h.5c0-.4 0-.8-.5-1.2m-12.5-7-.9.8.4.4c.3-.3.5-.5.5-1.2m-7.6.2.9-.9c-.2 0-.4-.3-.4-.3-.3.3-.6.5-.5 1.2z"/><path fill="#3C1D37" d="M324 108.6c-2 1.2-4 2-6.7 3.2.3-5 8.7-4.6 5.2-9.4-4.2 0-7.6-.4-11 0-3.3.6-6.5 2-11.1 3.4-1.8 1.7 8 3.7 3.2 6.3A386.1 386.1 0 0 1 290 102v-1.7c3.4 0 6.8.4 10.4.7-1.7-6.7-1-8 5.8-6.8 4.6.8 8.5.2 12.5-1.5 1-.5 2.3-.8 3.4-.6 3.7.5 7.5 1.3 11.7 2-.4 1.2-1 2.7-1.2 3.7l6.7 2.8-.5 2-7.5.4c-3.5.2-6.6 1-7.3 5.6zM329 122l3.5-5.8c-.4-1-1-2.2-1.5-3.9 3-4 6.6-6.4 11.4-6.2 1.2 0 2.3 1.4 3.4 2-.7 1-1.3 2.2-2.2 3-.5.6-1.6.6-2.1 1.2-1.2 1.2-2.1 2.6-3.2 3.9 2.1.2 4.1.6 6.2.7.6 0 1.2-1 2.2-1.7.4 3-1.3 4.5-4.5 5-1.3 0-2.4 1.5-4.3 2.6l-1.9.2-4.8-.1c-1.2-.4-1.7-.7-2.2-1zM330 111.6c-1.2 1.5-2.4 2.7-3.6 3.8l-1-1 1.6-5c.7-1 1.4-1.5 2.6-2.5l.4 4.7z"/><path fill="#361E32" d="M358 114.6c-2-.3-4.2-1-6.6-1.6.5-1 1.4-2 2.3-3l4.3 4.6z"/><path fill="#471F45" d="M346.7 137.8c-2.2-3.4-2.2-3.4 3-4.1-1 1.5-1.8 2.7-3 4zM328.7 122.2c.8 0 1.3.3 2 .7.3.8.3 1.6.3 2.7-.8-.8-1.7-2-2.3-3.4zM336 123.3c.4-.3.9-.3 1.7-.3 0 .8-.3 1.7-.6 2.5l-1.1-2.2zM340.8 138.2c.3.6.3 1 .3 1.5l-1.6-.4c.3-.4.7-.8 1.3-1.1z"/><path fill="#401E3D" d="M394.9 163.3c2 2 4 4.5 5.9 6.6l-1.8 8.7c-3.3 0-6.6-.3-9.8-.6l-.5-2.2 8-4.1c-.7-3-1.4-5.5-1.8-8.4z"/><path fill="#2B365C" d="m131.6 210.2-7.7-7.8c2.1-2.5 4.6-4.6 6.7-7 2.1-2.2 3.4-5.5 5.8-7 3.2-2 4.3-3.7 2.7-7-.2-.5.2-1.3.3-2 6.7 2.5 16.8-3.3 21-11.7-1.5-1.4-3-2.6-4.4-4.3.5-1.2 1-2 1.6-2.8l.5 1.2c2.5-.8 4.9-1.7 7.6-2.2 1.2 2 1.6 4.5 3 5.2a51 51 0 0 0 22.4 5.3c1.7 0 3.3 1.2 4.8 2.2-.7.7-1.3 1.2-2.3 1.7-4.3.7-8.3 1.4-12.2 2.5-.7.2-.9 2-1.7 2.4-2.6 1.1-5.3 2-8 2.7-.5.1-1.9-1-2-1-3.2 4.5-7.9 2.4-12.2 2.7l-.6 2.4c-1.7 6-2 6-7.6 3.3-.7-.4-1.7 0-2.5 0 .3.9.4 2 1 2.7.7.6 2 .7 4 1.5-3 1.6-5.5 3.9-7.2 3.4-5-1.2-6 2-7.7 5-1.6 3-3.5 5.7-5.3 8.6zM135.9 178.3c-.2 1-.8 2-1.3 2.9l-1.3-1.1c.8-.6 1.5-1.2 2.6-1.8zM112 200.6c-.1.4-.3.5-.7.6-.5-.9-.8-1.7-1-2.5l.7-.3c.4.6.7 1.2 1 2.2z"/><path fill="#342855" d="M184.1 128c1.5-.8 3.3-1.5 5.5-1.9 2.4 1.2 4.4 2 6.8 2.9 1.5 0 2.5 0 3.8.3 2.6 4.1 6.5 2.3 9.8 3 1.1 4.2 3.1 5.9 7.4 3.7l4.6-2h.3l1 .1c2 1.6 3.6 3 5 4.5 1.6 1.8 1.8 5 5.5 4.7.6-.1 2 1.4 2 2.2 0 1-.8 2.3-1.6 3.2a29.3 29.3 0 0 1-4.5 4.3l-5.5-3.7.3 1.4c-4.2 1.1-8.3 2.2-12.7 3-1.2-1.1-2.1-2-3.3-2.6-4.1-1.8-8.3-3.4-12.5-5.1.4-2.4-2.8-5 .5-7.2-1-1.3-1.7-2.9-2.9-3.9-3-2.3-6-4.5-9.5-6.9m30.1 24.6v-1.2h-.5c0 .4 0 .8.5 1.2z"/><path fill="#2D2E5B" d="M195.6 146c4.6 1.7 8.8 3.3 13 5.1 1 .5 2 1.5 2.8 2.6-3.7 1-7.1 1.7-9.8 2.3l1.4 8.4a74 74 0 0 0 1.5 4.5c-1.8 4.3-5.3 3.3-8.5 3.1-1.6-.7-3.2-1.8-4.9-2a51 51 0 0 1-22.4-5.2c-1.4-.7-1.8-3.3-2.7-5.4 1-.4 2.1-.4 3.7-.1l2.5 1.3.8-2.6c12.7-.2 15.2-.7 18.9-3.8-2.9-4.3-1.3-6.9 3.7-8.2z"/><path fill="#2B365C" d="M172.8 157.8c0 1-.3 2-.6 2.8-.6-.4-1.3-.7-2-1.3.7-.8 1.6-1.3 2.6-1.5z"/><path fill="#57558D" d="M173.2 130.8c.2-.5.8-1 1.6-1.2-.3.5-.8.9-1.6 1.2z"/><path fill="#4F386C" d="M200 129c-1 0-2.1 0-3.6-.4L191 125c0-.2 0-.4.3-.9a3 3 0 0 1 1.8-.4c.9.2 1.4.2 2.1.5 6.6 3.2 13 2.2 19-.4 1.6-.8 2.5-3.2 3.8-5.2v-1.9c0-.2 0-.7.4-.7.8-.7 1.2-1.3 1.6-2.3v-1c0-.2 0-.7.4-.7 1.1 0 1.9 0 2.6.4a219 219 0 0 1-1.3 15.6c-.8 0-1.3 0-2-.3-6.3 0-12.4.2-18.5.5-.4 0-.8.5-1.2.8z"/><path fill="#B0A0C4" d="m192.8 123.6-1.5.2c-3.3 0-6.2 0-9.2-.4 0-.3 0-.3.4-.3 4.7-1.4 9-2.8 13.5-3.8a6 6 0 0 1-.2 2l-3 2.3z"/><path fill="#43305E" d="M190.8 125a32 32 0 0 1 5.2 3.6c-2-.5-4-1.3-6-2.5 0-.7.3-.9.8-1z"/><path fill="#57558D" d="M178.5 123a13 13 0 0 1 4-1.7c0 .8-.2 1.3-.4 1.8h-3.6z"/><path fill="#43305E" d="M185 120c1.2-4.9 3.9-8.5 9-10.9l9-5.6c7.3-4.7 11.7-4.3 18.4 1.3 1 .7 2.4.8 4 1.2.7 1 1.2 2 1.3 3h-3c-2-.3-3.9-.3-5.2-1.1-9.1-5.7-21.2-2-25.6 8.5-2.8 1.4-5.3 2.4-8 3.5z"/><path fill="#3E244F" d="M225 106c-1.2-.4-2.7-.5-3.6-1.2-6.7-5.6-11.1-6-18.5-1.3l-8.6 5.5c.3-1.1.8-2.3 1.6-3.7 3.2-3.2 6-6.5 9.6-8.8 4.2-2.6 8.7-1.4 13.4 1.7 4.4 1.3 6.6 3.6 6.1 7.8z"/><path fill="#7D72A4" d="M184.7 120c2.9-1.2 5.4-2.2 8.5-3.7 2.7-1.3 4.7-2.3 7.2-3.3.8 0 1.3.1 1.7.5l-3 4c1 .8 2 1.2 3.2 2 2-.1 3.9-.4 6-.7 1.8-.3 3.2-.7 4.7-.6 0 1.2 0 2-.3 2.8h-1l-4.1 2c-1.1 0-1.9 0-2.8-.3-1.1-.4-2-.5-3.2-.5l-6.6 1.7c-.5 0-1 0-1.9-.2.6-.8 1.6-1.5 3-2.5.9-.8 1.2-1.2 1.6-1.7l-1.8-.6-13.4 4.2c-.2-.5 0-1 .4-1.7.6-.6 1-1 1.8-1.3z"/><path fill="#2C3A63" d="m131.7 210.4 5.2-8.8c1.7-3 2.8-6.2 7.7-5 1.7.5 4.1-1.8 7.3-3.4-2.2-.8-3.4-.9-4.1-1.5-.6-.6-.7-1.8-1-2.7.8 0 1.8-.4 2.5 0 5.6 2.8 5.9 2.7 7.6-3.3l.6-2.4c4.3-.3 9 1.8 12.2-2.7.1 0 1.5 1.1 2 1 2.7-.8 5.4-1.6 8-2.7.8-.3 1-2.2 1.7-2.4 4-1 8-1.8 12.3-2.2 1 .8 1.7 1.6 2.4 1.6 4.9.2 6.1 2.7 4.7 7.4l-5.5 2.5 4.8 3.4c-2 4.3-5.8 4.3-8 4.3-2.7 2.4-4.6 4-6.2 5.7-.9 1-1.3 2.4-2.3 3.7a36 36 0 0 1-7.6-.4c-.6-3.4 0-7.5-5-6.3 0 2.5 0 4.7-.2 7.2-5.2 1.9-3.1 6.3-4.3 9.6-2.3-.1-4.2-.6-5.9-.2-3.7 1-7.5 2.2-10.9 4-3 1.6-5.7 4-8.5 6.2l-9.5-12.6m23.5.2.2-1h-.8c0 .3 0 .7.6 1m-3.4-.2v1.2h.5c0-.4 0-.8-.5-1.2z"/><path fill="#294B79" d="M97 315c1.2-2 2.2-4.4 3.8-6.2 4-4.5 8.4-8.3 10.6-14.5a114.7 114.7 0 0 1 22.8-36c.7-.8 1.7-2 1.7-2.9 0-4.7 2.9-7 7.1-8.5 3 2.8 5.7 5.9 8.7 9.6a6 6 0 0 1-1 3.1c-5 6.8-9.9 13.6-15 20.3-4.2 5.4-7.5 11.5-14 15.1-4.6 2.6-8.5 6.6-13 10.1L97 315z"/><path fill="#2B4E80" d="M109 305c4.2-3.4 8.1-7.4 12.8-10 6.4-3.6 9.7-9.7 13.9-15.1 5.1-6.7 10-13.5 15-20.3.6-.7.9-1.7 1.3-3 2.4-1.3 6.2-1.8 6.9-3.5.8-2.2-.7-5.4-1.6-8-.6-1.6-2.1-3-3-4.8 4.5-1.4 7.6-5.8 12.7-3.8.7 6.4 1.3 12.5 1.6 18.7l-19.2 19.1c-1.3 1.2-2.9 2.2-3.9 3.6-1.5 2.1-2.1 5.3-4 6.7-9.5 6.6-19.2 12.9-28.8 19.2-1 .7-2.5.8-3.7 1.2z"/><path fill="#2D446F" d="M166.9 236c-5-1.5-8 2.9-12.6 4-4.6-5.4-8.8-11-13-16.7 2.7-2.4 5.3-5 8.4-6.6 3.4-1.7 7.2-2.9 10.9-3.9 1.7-.4 3.6.1 6 .7.4 5.4.3 10.5 0 15.5-1 .4-1.6.7-2.1 1.1.8.3 1.6.6 2.5 1.3l-.1 4.6m-8.1-1.6v1.2h.5c0-.4 0-.8-.5-1.2z"/><path fill="#29538A" d="M108.7 305.1c1.5-.5 3-.6 4-1.3 9.6-6.3 19.3-12.6 28.7-19.2 2-1.4 2.6-4.6 4.1-6.7 1-1.4 2.6-2.4 3.9-3.6 6.3-6.3 12.6-12.6 19.6-19 5.1.4 9.5.8 14 1.6-.7 1.8-1.1 3.3-2 4.5-2.2 3-4.7 5.7-7.4 8.6-3 2.7-5.4 6-8.5 7.7-10 5.6-20.2 10.6-30.2 16.1-2 1.1-3.3 3.4-5.2 5.2h-.7c-4.3 2.2-8.9 4.1-13 6.7-7.2 4.5-14.2 9.5-21.6 14.3-.4 0-.4 0-.4-.3l2-3.7a444 444 0 0 1 12.7-10.8z"/><path fill="#294B79" d="M95.6 316c-.3 1.1-.9 2.2-1.6 3.7-.8.3-1.5.3-2.6.3 1-1.3 2.4-2.7 4.2-4z"/><path fill="#3A1E3E" d="M220.4 87.5c-.5-.2-.7-.4-1-.7l.4-.4c.2.3.5.6.6 1z"/><path fill="#273D59" d="M174.4 392c.3-1.4.9-2.8 2-4.6 1.5-.4 2.5-.5 3.7-.3a165 165 0 0 0 17.4 3.8c10.4 1.6 20.9 2.7 31.3 4.1 3.5.5 7 1.2 10.2 2.3 1.6.5 2.8 2.2 4.4 3.7v6c-2.8-.4-5.6-.7-8.9-1.4-.7-4-3.2-5.7-6.2-6-2.8-.4-5.7.2-7 3.5-3-.5-5.6-.8-8.5-1.4a82.5 82.5 0 0 0-16.5-.7l-7.8-2.2 2.7 5.8c-3.3-.3-6.5-1-10-1.7-.6-.4-.6-.8-.7-1.5 1.4-.7 2.8-1 5-1.6-4.1-3-7.4-5.4-11.1-7.8z"/><path fill="#D9DEE5" d="M221.7 403.3c.9-3.5 3.8-4 6.6-3.8 3 .4 5.5 2.1 5.8 6.1-.2 3.9-2 6-5.5 6.3-2.9.3-5.8.2-6.8-4.2v-4.4m5 6c4.2-.6 6.2-2.9 4.3-5.2-1-1.2-3.8-2.1-4.9-1.5-3 1.6-2.6 4.1.6 6.6zM204.7 401c2.6.2 5.2.3 8 1.1 1.5 3.2-4.3 5.6.1 8.2-.8.5-1.6 1.3-2.3 1.2-1.4 0-2.8-.6-4.2-1l-.8 1.3-.6-3.9-.2-6.9z"/><path fill="#21374D" d="M204.3 401c.5 2 .5 4.1.5 6.6-3.3.4-6.6.4-10.2.4a29 29 0 0 1 1.5-6.7c2.8-.3 5.3-.3 8.2-.3z"/><path fill="#263551" d="M213 410c-4.6-2.3 1.2-4.7 0-7.6 2.7 0 5.3.2 8.3.7.4 1.4.4 2.7.4 4.3-2.8 1-5.6 1.6-8.6 2.6z"/><path fill="#E5E9EE" d="m243.5 407.3.1-6.5c5.3-1.9 4.3 3.3 6.3 5.6-.6.7-1.2 1.2-1.8 1.2-.6-1-1-1.5-1.9-2.6v6c-4.5 1.8-1.7-2.2-2.7-3.7z"/><path fill="#D3D7DF" d="m248.2 408 2-1.8c.8-2.5 1-4.6 1.4-6.6h1.4l1 4.4-.2 6.3c-1 .6-2.1.8-3.5.5l-2.1-2.8z"/><path fill="#263551" d="m248 407.6 2 3c-1 .4-2 .4-3.4.4-.4-1.7-.4-3.5-.4-6 .9 1 1.3 1.7 1.9 2.6z"/><path fill="#252F4A" d="M294 420.3c.4-.3.9-.3 1.7-.3 0 .5-.2 1-.4 1.6l-1.3-1.3z"/><path fill="#2A3F61" d="M254.4 404c-.7-1.5-1-3-1.4-4.4h-1.4c-.3 2-.6 4.1-1.3 6.3-2.4-1.8-1.4-7-6.8-5.4-1.7-1-2.9-2.7-4.5-3.2-3.3-1.1-6.7-1.8-10.2-2.3-10.4-1.4-21-2.5-31.3-4-5.8-.9-11.5-2.3-17.3-4.1a6 6 0 0 1 2.3-2.8 213 213 0 0 1 13.5 2.7h11.4c.7 0 1.1 0 1.7.3 1.6.5 2.9.6 4.4.8h1.7l2.8.6a45 45 0 0 0 26.6.7c1.3-.4 2.4-1.7 3.9-2.5 1 0 1.6-.2 2.3 0 1.8 3.8 3 1 4.6 0l2.7.3c4.2-.2 8-.6 12.2-.7 7.8 1.3 9.2.4 11.3-6.3 3.4-.3 6.3-.7 9.4-.6l.6 7.4h1.6l1.2-4.4 3.3 5.2 3-5.2 1.4 4.5h1.4c.3-3 .5-6 1.1-8.9l9-1 1 10.5c4.8-2.2 2.9-5.8 3.8-8.5 3.2.3 5.9.7 8.6 1.3l1.5 4.7c-5.4 2-10.8 4.3-16.3 5.9-4.6 1.3-9.5 1.5-14.1 2.7-9 2.2-18 4.8-27.5 7.4-1.6.1-3.3-.2-3.8.5-1.1 1.4-1.7 3.3-2.6 5a362 362 0 0 0-9.8-2.5z"/><path fill="#D9DEE5" d="M264 406.8c1-2 1.7-3.9 2.8-5.3.5-.7 2.2-.4 3.6-.2l3.5 8.4c-.6.6-2.1 1.4-2.2 1.3-2.2-3.5-4.2-3.2-6.4 0-.4.7-1.9.6-3.5 1 .8-2.1 1.4-3.6 2.2-5.2z"/><path fill="#D3D7DF" d="M284.7 412c-.8-4.2-1.2-8.2-1.5-12.2l2.2-.2 1.2 9.7h1.8l1.3-9.7h1.7l.6 7c-.4 4.6-3 5.9-7.3 5.3z"/><path fill="#E5E9EE" d="m301.9 405-2.1-5.4c2.6 1.7 6-2.4 7.1 2.9l-1.9 5.6-1.3 3.6c-.6-1.2-1.3-2.5-1.7-3.8-.2-.7 0-1.6-.1-2.8z"/><path fill="#B0A0C4" d="M315.9 403.5c.3-1.5.6-2.5 1-3.5.7.4 1.4.8 2.2 1.6 0 3.7-.3 7-.5 10.3h-2.3l-.4-8.4z"/><path fill="#F9F7F6" d="M389.2 246.2c-.5-8.7 0-9.4 7.4-10.9 5.5 1.3 8 4.4 7.3 10.3-2.2 3.6-4.8 6-9.5 5.2a53 53 0 0 1-5.2-4.6z"/><path fill="#492553" d="M406.5 233.6c-.1.5-.4.7-.7 1l-.4-.3c.3-.3.6-.6 1-.7zM397.8 219h-.5.5z"/><path fill="#2E3D66" d="M387 361c-1.8 1.2-3.4 2.7-5.4 3.6-8.3 3.6-16.8 7-26 10.4-2.6 2.9-4.5 5.7-6.4 8.4l-10.4-.3c-1.6.3-2.4.7-3.1.7-1.7-.2-3.7 0-4.8-1-.7-.6-.7-3.5 0-4.2 1-.9 3.1-.8 4.7-.8 1 0 2 .3 3 .5l.6-1.6c-2.4-.8-4.7-1.6-7.1-2.8.7-1 1.4-1.9 2.2-2 8.8-2 17.7-3.9 26.5-6 2.8-.6 5.5-1.9 8.6-2.9l17.6-2z"/><path fill="#D3D7DF" d="m332 374.3 7.2 2.4-.6 1.6c-1-.2-2-.6-3-.5-1.6 0-3.6 0-4.7.8-.7.7-.7 3.6 0 4.2 1 1 3.1.8 4.8 1 .7 0 1.5-.4 2.7-.7-1.6 4.5-4 5.1-9.6 2.1-.8-1.6-1.2-3-1.7-5.2 1-2 2-3.5 3.2-4.9l1.8-.8z"/><path fill="#D9DEE5" d="M349.2 383.7c2-3 3.8-5.8 6-8.6 1.2 1.8 1.9 3.6 2.8 5.6l2 5.6-.5 1.6c-3.5-5.2-7-5.5-10.7-1.3l.4-2.9z"/><path fill="#3B2248" d="M225.3 106c.2-4.2-2-6.5-6-7.7.9-.8 2-1.3 3.5-2 .6-.3 1-.3 2 0 1 0 1.6-.1 2.2-.3 2.7-.1 5 .1 5 3.8 0 3.3 1.9 3 4.4 2 6.4-2.3 10.2-1 12.2 3.4 2-.2 3.9-.2 5.7-.6 1.7-.3 4-.6 5-1.8 1.3-2 2.9-4.1 4.7-2.2 1.4 1.5.9 4.7 1.2 7.2l.8 5.2c.7 1.5 1.3 2.2 2 3.4 1 1.4 2 2.5 3.4 3.6 1.8.3 3.2.7 4.6 1.4-1.9 2-3.8 5.1-5.4 5-4.3-.6-8.4-2.5-13-4-2 1.2-2.3 5.8-7.2 4-4.6-1.6-9.8-1.5-14.8-2.5-1.3-.3-2.5-1.5-3.8-2.2l.8-1 5.8 1.3 1-1.3c-1.5-2.2-2.8-4.6-4.7-6.3-2.3-2.1-5-3.6-7.7-5.4-.4-1-.9-2-1.7-3z"/><path fill="#3266A2" d="M124 349c-5-1.1-9.8-2.2-14.7-3.5-1-.3-1.5-1.8-2.2-2.8 1.3-.8 3-2.7 3.8-2.3 4 1.7 7.2 1.5 11-.8 1.6-1 4.4-.2 6.7-.2l.1-1.4-2.4-1.9.1-1.4c2.7-.2 5.3-.3 8.3-.2a18 18 0 0 1 1 3.2c7.4-4.8 10.6-14.6 20.7-15.4 0 3.4-7.4 4.5-2.3 9.2l-2.1 5.6c-3 6.1-8.6 7.8-14.3 9.9-3.8-3.4-4.8.5-7 2H124z"/><path fill="#356BA6" d="M154 331.2c-5-4.4 2.3-5.5 2.4-9-10.1.9-13.3 10.7-20.7 15.5l-.7-3.3c1-1.9 1.8-3.3 3.2-5.1 1.7-2 2.8-3.7 4-5.3l-1.5-1.3-6.7 4.3c-1.3.9-2.8 1.6-3.8 2.7-3.3 4-12.8 7.5-17.7 6.1-.7-.2-1-1.4-1.5-2.6 0-.4 0-.8.3-1 7.2-3.6 14-7 21-10.3 8.2-2.7 15.9-5.4 23.9-7.7 1.9.6 3.6 1 5.4 1.3l-3.8 9.7-3.7 6z"/><path fill="#265587" d="m135 367-6.1-2.2.2-1.6-3.6 1.4c-4.2-2.2-7.8-4-11.4-6.3 4-2 8-3.6 12.5-5.3.4 0 .4 0 .2.3l-4.4 5 14-1c-.2-2-.3-3.7 0-5.4 3 .2 5.8.7 8.7 1.5 2.9.1 5.7-.1 8.6.1.2 3.1.3 5.8.1 8.5-.8.7-1.3 1.3-2.2 1.8-5.7-.4-12-5-15.6 3l-.5-1.1-.5 1.3z"/><path fill="#3266A2" d="M134.2 327.3c2-1.7 4.3-3.1 6.5-4.6l1.5 1.3a51 51 0 0 1-3.8 5 20 20 0 0 1-4.2-1.7z"/><path fill="#265587" d="M124 349.3c1.7-.3 3.4-.3 5.6 0 .4.2.4.7.3 1L127 353c-1-1.1-2-2.2-3-3.7z"/><path fill="#2E5C97" d="M136 367c3.5-8.2 9.9-3.6 15.8-2.8 1.4 2.7 1.8 5.3 5.2 5.2-.7 2-1.3 3.8-2.4 5.6l-20.6-5 1-2.7c0-.3 0-.3.2-.3h.8z"/><path fill="#265587" d="M133.7 370.2c7 1.5 13.7 3.1 20.7 5-1.1 2.1-2.4 3.9 1.5 4.1-.6 1.5-1.2 2.6-1.8 3.7-7.7-1.1-15.5-2.2-22-7.6.4-2 .9-3.5 1.6-5.2z"/><path fill="#353B6E" d="m387.4 361-18.3 2c-3-.3-4.7-.8-3-3.6.9-1.7 1.3-3.6 2.3-5.4l19.6-6 1.7.9a101 101 0 0 1 1.7 8.3c.2 0 1.4.1 2.6.5a9.8 9.8 0 0 1-1.7 3.2l-4.9.1z"/><path fill="#373766" d="m409.3 354 .6-.2c0 .2-.2.2-.6.2z"/><path fill="#949FCB" d="M396.9 324.8c.6 1.8 1 3.4 1.2 5.2-3.6-1.2-7-2.6-10.7-4l-14.4-6c-1.1-.5-2.2-1.2-3.7-2.3-2.2-6.9-7.9-9.9-12.8-12.4-9.4-4.8-19.4-8.3-29.3-12-4.6-1.8-9.4-3-14.4-4.3-.3 0-.8 0-1-.3a32 32 0 0 0-5.2-2.7c-2.8-.3-5.2-.7-7.7-1.4a75.4 75.4 0 0 0-33-7.3c-12.3-.2-24.6 1.7-36.9 2.3 0-1 0-1.8.4-2.6l19.2-2.3c3.5-.4 7.1-.5 10.6-1 .7 0 1.2-1 2.1-1.7.8 0 1.3 0 1.8.3.9.8 1.6 1.5 2.5 1.7 5.4.9 10.8 1.3 16.1 2.5a380.6 380.6 0 0 1 59 18.3c5 2 10.2 3.5 15.5 5.5 1 .4 2 .5 2.8 1l2 2c1.4 1.2 2.7 2 4.3 2.7.2 0 .7 0 .7.3a20 20 0 0 0 4.4 2.7c.7 0 1.1 0 1.6.4 1 1 2 1.8 3.4 2.6 5.4 2.7 10.5 5.4 15.6 8.4 1.7 1.4 3.4 2.5 5 3.6.3.1.6.3.9.8z"/><path fill="#3B4378" d="M388 347.6c-6.4 2.4-12.8 4.4-20.1 6.4l-9.2.6-4.5-1.1 5.1-2.2-.1-1H353c-.2 1.7-.3 3.2-.8 4.7-3.3.7-6.3 1.3-9.4 1.6l.1-6.6c1-1 1.8-1.7 2.8-2l31.3-11c.9.8 1.7 1.7 2.7 2.4 1 .7 2.2 1 3 1.9 1.8 1.9 3.5 4 5.3 6.3z"/><path fill="#3E487E" d="M377 336.6c-10.4 4-20.9 7.7-31.3 11.3-1 .4-1.8 1.1-3.2 2-1.5 2-2.5 3.7-3.6 5.6-.7-1.2-1.3-2.9-2.5-3.8-1-.7-2.7-.5-4.5-.7-.4-2.3-1.2-5-.2-6.6 2-3 5-5.4 8-7.9 4 1.2 2.8-2 3.4-3.5 2.6-.3 5.3-.6 8.4-.6 1 1.8 1.6 4.3 2 4.3 2-.3 4-1 6-1.7 5.8.4 11.6.8 17.4 1.6m-27.6-1.2-.8 2 1.7.2c0-.6-.2-1.3-.9-2.2z"/><path fill="#A2B3D8" d="M313 289c4.8 1.4 9.6 2.5 14.2 4.2 9.9 3.8 20 7.3 29.3 12 5 2.6 10.6 5.6 12.5 12.3-1.8-.2-3.5-.8-6-1.6-6.4-2.3-12.2-4.5-18-7-.4-1-.7-2-1.3-2.4L315.8 292c-1.1-.6-1.9-2-2.8-3z"/><path fill="#48518A" d="M343 322c0 .8 0 1.6-.4 2.8l-5 3.2-4.3-3.9c-.4 2.7-.6 4.3-1.1 6-3.2 0-6 0-9-.4-3.7-5.6-5.2-6-11.3-3.6a26 26 0 0 1-5.7-2.4c2-1 3.8-2 5.7-2.6a358 358 0 0 1 22.1-5.7c1.2 1.8 2 3.6 3.5 4.6 1.6 1 3.7 1.4 5.5 2z"/><path fill="#4F548C" d="M343.4 322c-2.2-.6-4.3-1-5.9-2-1.4-1-2.3-2.8-3.3-4.9 2.3-2.5 4.6-4.3 7.2-6l3.7.2 17.6 6.6c-.5 1.1-1.1 2.7-2 3l-17.3 3.1z"/><path fill="#DDE4EE" d="m332.6 330 .7-5.9c2 2 3.6 3.2 4.3 3.9a38 38 0 0 1 5-2.8c.3 2.3.3 4.6.4 7.4-.5 2 .8 5.1-3.4 3.6-1.4-2-2.4-3.6-3.7-5.8l-1.4 6.5-1.4-.2-.5-6.7z"/><path fill="#E5E9EE" d="M359.1 334.9c-1.6.7-3.6 1.5-5.7 1.8-.3 0-1-2.5-1.5-4.3l.2-7h7l.2.8-5 2.1 5.4 2.5-5.7 2.7 5.1 1.4z"/><path fill="#6F75B0" d="m403 324-6.8-3.2c-1.5-.5-2.3-.7-3.2-1.2-.3-.8-.4-1.4-.7-1.6-10-6-20.2-12-30.3-17.8-.8-.4-2-.2-3.2-.5-1-.4-2-.5-3-1-2.5-1.7-4.9-3.4-7.4-4.4-7.8-3-15.5-6.5-23.6-8.8-17.4-4.9-34.1-12.2-52.5-13.7-1.2 0-2.2-2.4-3.2-4 .4-.4.6-.6 1.2-.8.8 0 1.3 0 1.7.3 1 .5 2 .6 3.4.7 1.5 0 2.5 0 3.8.3.8.6 1.4 1 2 1.2 19.5 6.4 39 12.7 58.4 19.3a232 232 0 0 1 55.1 28.1c3 2 5.6 4.7 8.3 7z"/><path fill="#64659F" d="M403.1 324.2c-2.8-2.6-5.4-5.3-8.4-7.3a232 232 0 0 0-55-28.1c-19.5-6.6-39-12.9-58.5-19.3-.6-.2-1.2-.6-1.8-1.5 2.6 0 5.2.4 7.7 1l34.5 10.1c4.9 1.5 9.6 3.3 14.7 5 1.8.4 3.3.7 4.7 1.2.7.8 1.4 1.2 2.4 1.7 1.9.5 3.4 1 4.8 1.6L360 293a6835.6 6835.6 0 0 0 41.2 25.6c1 .6 2 1 3.4 1.4.6.8.9 1.6 1.3 2.7-.4.9-.9 1.5-1.6 2.2-.6 0-.9-.2-1.2-.7z"/><path fill="#8B93C1" d="M393 320c.9.1 1.7.3 2.8.7.2 1 .2 1.8.2 3-1.6-.8-3.3-2-4.6-3.3.7-.4 1.2-.4 1.6-.4z"/><path fill="#26558E" d="M175.5 386.7c-3.2-.2-6.5-.5-10.3-1-1.2-2-1.8-3.6-2.2-5.5 2.1-2.3 4-4.3 6.3-6.3 1 .3 2 .7 2.7 1.4l2 3.9v4.3l1.5 3.2z"/><path fill="#DDE4EE" d="M162.8 380.5a220 220 0 0 0 2 5.2c-.5.5-1.5 1.1-1.5 1-3-4-6-3.3-9.8 1.7l.6-5 2-4.4c1-1.9 1.7-3.2 3-5.2l3.7 6.7z"/><path fill="#D3D7DF" d="m174 379.7.1-.8c.1-1.1.2-1.8.5-2.6a30 30 0 0 1 6.3-.7c.3 1 .5 1.6.4 2.5.1 2 .5 4 .8 6-.6.7-1.3 1.4-2 2.4-1.2.4-2.2.5-3.7.6-.3 0-.6-.3-.7-.3-.7-1-1.2-2-1.3-3.4 1.7 0 3 .4 4.3.7l.3-.7-5-3.7z"/><path fill="#3D63A0" d="M129 299.3c0-.3.5-.3 1.1-.3 2.4-.5 4.3-.7 5.8-1.5 6.3-3.3 12.4-6.9 18.6-10.2 5.8-3.2 11.7-6.2 17.7-9 3.1-.3 6-.8 8.8-1-7.7 4.5-15.4 8.6-23 12.7-1 .7-2 1.5-3 2.6-7.4.2-12.2 6-18.5 8.4-4.3 1.6-8.7 3-13.3 4.2 1.8-2 3.8-3.8 5.8-5.9z"/><path fill="#356BA6" d="M101.3 321.1c2.8-3 5.6-6 9-8.5 3.4-2.5 7.3-4.4 11.3-6.6-.4 1.6-.6 4-1.8 5-5.1 3.7-10.5 7-16 10.4-.4.3-1.4-.1-2.5-.3z"/><path fill="#6385BE" d="m190 286-25.4 8.6c-1.8.6-4.8 3-4.3-2.2.4-.4.5-.4.9-.2.7-.2 1.3-.7 2.1-1.2h2c12.2-3.9 23.9-8 35.8-11.4 9.5-2.7 19.2-4.5 28.9-6.6v.4c-2 1.7-4 3.2-6.4 4.6l-3.8.6c-9.8 2-18.8 7.5-29.3 6l-.5 1.4z"/><path fill="#81A4D3" d="M190 286.3c.1-.8.4-1.6.5-1.6 10.5 1.4 19.5-4 29.3-6.1l4.2-.6c2.2-.3 3.6-.6 5-1 0 .8 0 1.5-.4 2.7-2.8 1.7-5.2 3-8 4.3l-8 1-14 5h-2l-18 5-11.6 3v-.8c7-3.2 14-6.1 21-9.1.7-.3 1.3-1 2-1.8z"/><path fill="#4A6CA9" d="M161 292h-2.7c-.3-.5-.3-1-.3-1.7 7.6-4.4 15.3-8.5 23.3-13 1.8-1 3.3-1.6 5-2 1 .3 1.8.4 2.5.3 8.4-2.2 16.8-4.4 25.2-6.3a5 5 0 0 1-.2 2c-1.9.6-3.5.8-5 1.4-11.4 4.1-22.7 8.1-34 12.5-3.4 1.4-6.5 3.8-9.8 5.8h-2l-2 1z"/><path fill="#88BFE7" d="M166.7 298.2c4-1.2 7.8-2.1 11.9-2.8-1.3 2-3 3.8-4.6 5.6h-.4c-7.1 1.9-13.4 4.4-16.8 11.5l-.9 1.4c-7.7 2.6-15.4 5.3-23.5 7.6.6-2.7 1.6-5 2.6-7.5l31.7-15.8z"/><path fill="#79B6E1" d="M134.7 314c-.7 2.4-1.7 4.8-2.7 7.6-6.8 3.6-13.5 7-20.7 10.3.7-1.8 1.2-4.4 2.8-5.4 6.6-4.4 13.4-8.3 20.6-12.5z"/><path fill="#F9F9FB" d="M320.7 215.8c7.4 9.7 14.4 19.3 21.4 28.9 1.2 1.7 2 3.7 3 6-.8 1.8-1.8 3.3-3.3 5-5.8 1.9-7.8-2.4-10.6-5.5l-21.7-29.3c-8.3-11.4-9-10-17.1 1.2l-.7 1-6.6 8.8-9.6 12.8-6.6 9c-3.2.8-6 1.4-8.9 1.8-.3-.5-.6-.6-1-1-.5-2.4-.8-4.5-1-6.8l9.7-13 10.9-14.8 8.9-12c.3-.3.3-.6.2-.9l.3-.3c3.4-4.6 8.3-5.3 13-6.3l2.8.3h.8c7.9 2.2 11.3 9.2 16.1 15.1z"/><path fill="#51457B" d="M331.3 250.5c2.7 2.8 4.7 7 10.3 5.5 1 2.8 1.1 6.1 2.6 8.5 3.3 5.2 7.2 10.2 11.1 15 2.2 2.5 5 4.5 7.4 7.3-.4.6-.6.9-1 1.2l-1-.1-1.2-.7c-4.5-3-9-6.1-13.2-9.2.6-.4 1-.7 1.2-1l-.6-.5c-.3.5-.6 1-1.3 1.5-3.3-1.7-7.3-2.8-9-5.3-6.1-10-15.2-17-23.4-25-1.1-1-3-1.2-4.4-2.2-.6-3-1.3-5.5-2-8.5.2-1.3.2-2.1.2-3h.4c8.3 4.7 16 9.6 20.2 18.8l3.7-2.3zM379 297.6c-.7.4-1.5.4-2.8 0l-11.1-6.6-.8-2.1c-.3-.6-.3-.7-.3-1 6.7.4 11 4.5 15 9.7z"/><path fill="#534C84" d="M398.7 310c-1 .3-2.8 1.4-3.6.9a71.5 71.5 0 0 1-10.7-7.5c2.5 0 4.5.3 6.6 1l7 5.6h.7z"/><path fill="#51457B" d="m391 304-6.6-1c-.4 0-.4 0-.4-.3-1-1.5-2-2.6-3-3.7l8.8 3.2c.7.8 1 1.3 1.2 1.8zM398 309.6a50.9 50.9 0 0 1-7-5.2c0-.4 0-.4.3-.4h.7c2 1.8 4 3.5 6 5.6z"/><path fill="#534C84" d="M380.7 299c1.3 1.1 2.2 2.2 3.3 3.7-1.6-.8-3.3-2-4.9-3.4.4-.4.8-.3 1.6-.3zM363.9 287.8l.1 1c-.5.5-1 .8-1.7.8-.3-.7-.3-1.2-.3-1.6.1-.3.3-.6.8-1 .5 0 .8.3 1.1.8z"/><path fill="#51457B" d="M344.6 259c-.3.3-.7.4-1 .4v-.8c.3 0 .7.1 1 .4z"/><path fill="#534C84" d="M392 303.7c-.2.3-.3.3-.7.3-.6-.5-.8-1-1.2-1.7.5.2 1.2.6 1.9 1.4z"/><path fill="#57558D" d="M361.7 288c.3.4.3.9.3 1.7-.4 1.3-.9 2.2-1.7 3.3l-12-4.4c-1.5-.6-3-1-5-2L341 285c-1.4-.2-2.9-.5-4.7-1.2-1.3-2-2.3-3.4-2.9-4.8 3 .8 5.9 1.3 8.3 2.4 4.8 2.3 9.3 5 14 7.4 2 1 4 2 5.3-.8h.7z"/><path fill="#534C84" d="M365 291.3c3.6 1.8 7.1 4 10.8 6.4-4.6.1-8.2-2-10.8-6.4z"/><path fill="#462555" d="M300.7 153.9c1.7 2 2.6 5.2 4.5 5.9 4.5 1.6 5.6 5 7 8.8.4 1.3 2 2.8 3.3 3.2 5.6 1.6 10.2 4 11.9 10.3.2 1.2 2.4 2 3.8 2.8 2.3 1.2 4.8 2.1 7 3.1l-1.2 9.6c-5.6 3-8.6-1.1-12.2-4.1-1.1-1-2.8-1.3-4-2.2-2-1.4-3.9-3-6.4-5.1l4.6-1.7-5.3-5.9-10.3-1c-1.9-.2-3.8-.4-5.6-.8-1-.2-2.3-.5-2.8-1.3-.5-.7 0-2 .2-3 .3-1 .9-2 1.3-3.1-1.5-.4-3-1.3-4.5-1.1-2 .2-4 1.3-6 1.7-4.1.7-5.4-2.2-6.8-5.2-.6-1.3-1.7-2.4-2.9-4-3.7-5.1-3.4-9 1.5-12.4 0 0 0-.3 0 0-2.8-1.5-5.3-3-7.8-4.8 1-1.1 1.9-2.1 3-2.5 4.4-1.9 8.7-.6 13 .9l.2 1c8-.8 8.5 8.4 14.5 10.9m.6 16.7c0-.8-.2-1.6-.3-2.3l-1.3.2c.3.7.6 1.4 1.6 2m17 10 .3-1.7h-1.2c0 .6.2 1.2.9 1.7m-13.9-11.8.9.9.3-.4c-.3-.3-.5-.6-1.2-.5z"/><path fill="#3E244F" d="M286.4 142c-4.7-1.5-9-2.8-13.4-1-1.1.5-2 1.5-3.2 2.8-4 2.9-9.7.3-10.4-3.7l4.4-2-2.9-6c-2 1.6-3.9 3.6-4.5 3.3-6.5-3.2-12 .6-15.9 1.8-3.4-2-5.7-3.2-7.9-4.6-2.2-1.5-4.4-3-6.6-4.9 0-.2 0-.7.3-.9 5.8-3 1.8-8 2.7-12.1-1.7-1.5-3.3-2.6-5-4V109h2.7c3 1.8 5.7 3.3 8 5.4 2 1.7 3.2 4.1 4.7 6.3l-1 1.3-5.8-1.2-.8.9c1.3.7 2.5 2 3.8 2.2 5 1 10.2 1 14.8 2.6 5 1.7 5.2-2.9 7.3-4.1 4.5 1.5 8.6 3.4 13 4 1.5.1 3.4-3 5.6-5 2.2 1 4.5 2 2.2 5-.5.7.3 2.4.5 3.6 0 4 3.2 4.1 5.8 4.9 2.4.8 5 1 9.4 1.8-3.2 2.3-5.4 3.7-7.8 5.3z"/><path fill="#412046" d="M279.4 130c-.6-1.2-1.4-3-.9-3.6 2.3-3 0-4-2.2-5.3-1.7-.4-3.1-.8-5-1.5L268 116c-.7-.8-1.3-1.5-2-2.7 1.2.1 2.4.6 3.6 1l-.4-1 9.4-3.3c.9-.1 1.5 0 1.8-.3 2.6-2.4 5.6-2.3 7.3.4 1 1.7.2 4.6.2 8 2.8.2 7 .5 11.7 1.3 2 1.1 3.7 1.9 5.4 2.6l1.8 1.8c-.4.7-1 1.2-1.6 2-1.2-.4-2.1-1-2-.9l-6.5 3.1h-.5c-4.9 5.6-10.8 1.8-16.8 2z"/><path fill="#4A2048" d="M337 154.3c5.6-.6 11.2-1.2 16.7-1.1 2.1 0 5.8-.2 5.3 2.3l-10.7 6.4a111 111 0 0 1-11.2-7.6z"/><path fill="#492553" d="M370.5 198.6z"/><path fill="#3E2756" d="m226 128 6.6 4.6c2.2 1.4 4.5 2.6 8 4.6 3.9-1.2 9.3-5 15.8-1.8.6.3 2.4-1.7 4.5-3.3l3 6-4.5 2c.7 4 6.3 6.6 10.3 4 2.8 1.3 5.3 2.8 8.1 4.4 0-.4 0 0 0 0-5 3.2-5.2 7.2-1.8 12.1-6.4-1.2-11.9 1.9-18.1 4.2-1.4 1.5-2.3 2.7-2.7 3.3l-6.4-4.4L230 153c1.4-1.4 3-2.7 4.2-4.3.8-.9 1.6-2.1 1.6-3.2 0-.8-1.4-2.3-2-2.2-3.7.3-3.9-3-5.5-4.7-1.4-1.6-3-2.9-5-4.7l-.8-1.2-.5 1.3h-.4l-4.6 2c-3.9 2.2-5.9.5-6.6-3.6l9.6-4.4h6m28.8 11.1-6.5.7.6 2.5c2.1-1 4.3-1.8 5.9-3.2z"/><path fill="#3D2F63" d="m249 164 6.2 4.1c.4-.6 1.3-1.8 2.5-3 3.4 2.2 6.5 4.5 10 7l1.3.9s.5 0 .8.3c.6 1.5.9 2.6 1 4l-1.8 3.5c4.1.8 7.6 1.5 11 2.4 0 .5 0 .6-.2 1.1-3.3 5.2-8 5.5-12.7 3.5-1.8-.7-3-3.1-4.4-4.8l.4-1.4c-4 .7-7.9 1.6-11.8 2.2-4 .6-4.7 2.8-3.6 6.2-1.5-.4-2.6-.7-3.7-1.4a35.5 35.5 0 0 0-4-3.6c-3.6-2.8-10.5-2.6-8.6-10h6.7c-2.2-4.8.3-5.9 3.4-7 2.7-1 5-2.7 7.5-4z"/><path fill="#492E62" d="M280 184v-1.1c-1.9-4.4-4.8-6.1-9-5.9l-1-3.7a19 19 0 0 1 15.7 10.8c.3 1 .3 1.5 0 1.9l-5.7-2z"/><path fill="#4F386C" d="M322.8 207c.1 1.5 0 3-.1 4.5h-1l.3-4.2c.2-.4.4-.4.8-.3z"/><path fill="#443267" d="M286.3 186c-.3-.4-.3-.9-.3-1.7.4-.3.9-.3 1.7-.3-.2.6-.6 1.3-1.4 2zM268.9 172.8c-.2.1-.5 0-.8-.6.2-.1.5 0 .8.6z"/><path fill="#492E62" d="M353.5 226.6z"/><path fill="#48234D" d="M355 164.7c-.7.3-1.5.3-2.6.3.6-.2 1.5-.4 2.6-.3z"/><path fill="#4A2048" d="M391.5 196.6z"/><path fill="#443267" d="M279.8 184.3c2 .4 3.7 1 5.8 1.7 3.7 3 7 6 10.2 9 1.7 1.5 3.4 3 5.2 5-4.7 1.4-9.6 2.1-13.2 6.3l-3.2-2.6c-6.6-5.5-15.5-2.1-23-5.7l-13.6-8c-1.4-3.4-.8-5.6 3.3-6.2 4-.6 7.9-1.5 11.8-2.2l-.4 1.4c1.5 1.7 2.6 4 4.4 4.8 4.7 2 9.4 1.7 12.7-3.5zM304.8 200.3c-.2.4-.4.4-.6.3 0-1 0-2 .2-3l1 .1-.6 2.6z"/><path fill="#4F386C" d="M335.5 222.4s-.1 0 0 0z"/><path fill="#472A5B" d="M345.6 202.5c.5.1.7.4 1 .7l-.3.4c-.3-.3-.6-.6-.7-1z"/><path fill="#48234D" d="m382 191-.2 2.3-1.2-.3c.3-.6.5-1.3 1.1-2h.3z"/><path fill="#341E33" d="M265 88c.7.9 1 1.7 1.3 2.5h-2.6c.3-.8.6-1.6 1.3-2.4z"/><path fill="#392248" d="M226.9 95.8c-.5.4-1 .5-1.8.4.5-.3 1-.5 1.8-.4z"/><path fill="#471F45" d="M305 121.6c-1.7-.3-3.3-1-5-2.2 2.7-5.2 5.5-6.2 13.2-3.6l-4 2.2c-1.4 1-2.7 2.2-4.2 3.6zM312 119.4c.3.4.3.8.3 1.2h-.5c0-.4 0-.8.2-1.2z"/><path fill="#412046" d="M290 102.3c.6.1 1.3.6 2 1.4-.6-.2-1.3-.6-2-1.4zM299.5 112.6c-.2.5-.4.7-.7 1l-.4-.4c.3-.2.6-.5 1-.6zM291.5 112.4c.1-.5.4-.7.7-1l.4.3a2 2 0 0 1-1 .7z"/><path fill="#343265" d="M231 175c-1.5 7.4 5.4 7.2 9 10 1.3 1 2.6 2.2 3.7 4-1.3.7-3 1.3-3.4.8-3.4-3.5-7.5-1.9-11.7-1.8-2.7-1-5-2-7.2-3l-1.8 3c-1-6-4.7-6.6-9.3-6-3 .5-6.2.7-9.3 1 1.2-4.4 0-7-5-7-.6-.1-1.2-.9-2-1.6.6-.9 1.2-1.4 1.9-2.1 3.3-.1 6.8 1 8.6-3.4a18 18 0 0 1-1.1-4.5c4 2.5 7.9 4.3 12.6 2.6v.4c1 1.7 1.6 3.8 2.9 4.3 4 1.4 8 2.2 12.1 3.3z"/><path fill="#362D5F" d="M231.4 175c-4.5-1-8.6-1.9-12.5-3.3-1.3-.5-2-2.6-2.6-4.3.6-.8 1-1 1.2-1.4l-.6-.5-1 1.5c-4.6 1.7-8.5-.1-12.5-3-.8-2.5-1.2-5-1.8-8l10-2c4.6-1 8.7-2.2 13-3.3l-.4-1.4 5.5 3.7c6.5 3.5 12.7 7 19.1 10.7a31.4 31.4 0 0 1-7.3 4.3c-3 1.1-5.6 2.2-3.4 7h-6.7z"/><path fill="#43305E" d="M219.8 127.7c-2.9 1.6-6 3-9.4 4.3-3.7-.4-7.6 1.4-10.2-2.7.2-.6.6-1.1 1-1.1 6-.3 12.2-.5 18.6-.5zM217.4 136c1-.7 2.4-1.3 4.2-2-1 .7-2.5 1.3-4.2 2z"/><path fill="#362D5F" d="M214 152.6c-.3-.4-.3-.8-.3-1.2h.5c0 .4 0 .8-.2 1.2z"/><path fill="#43305E" d="M222.3 134c-.1-.4 0-.9.2-1.3l.5 1c0 .3-.5.3-.7.3z"/><path fill="#504176" d="M223.6 109c.4.4.4.9.2 1.8l-.8 1.2c-.7 0-1.5 0-2.8-.2l-3.8-1.6c-2.2-.2-4-.2-6-.6-4.2-2.5-7.1-1.4-10.4 3.4-2 1-4.1 2-6.6 3a17 17 0 0 1 25.1-8.1c1.3.8 3.1.8 5.1 1.1z"/><path fill="#51457B" d="M205 123h3c1.8-.7 3-1.3 4-2h1c2.1-.7 3.5-1.4 5-2-1.3 1.6-2.2 4-3.9 4.8-6 2.6-12.3 3.6-18.9.4 1.9-.9 4-1.4 6.4-1.7l3.4.5z"/><path fill="#43305E" d="M223 112.4c0-.7.3-1 .8-1.3 1.9 1 3.5 2.1 4.8 3.6-4.8 1.6-6 8.3-2.6 12.3v.7c-1 .3-2.1.3-3.6.3 0-5 .3-10.1.6-15.6z"/><path fill="#5F588F" d="M218 118.6c-1.5 1-2.9 1.7-4.7 2.4-.3-.8-.3-1.6-.1-3 .6-1.2 1.1-1.8 1.9-2.2l1.1.6 1.8.6v1.6z"/><path fill="#7D72A4" d="M216.8 110.3c1 .4 2 .8 3 1.5.3.2.2.7-.1 1-.7.5-1.2.9-1.6 1.5 0 .4 0 .6-.3.7-.5-.2-.7-.4-.8-1.1l-.2-3.6z"/><path fill="#504176" d="M218 115s0-.3.4-.7c.8-.3 1.2-.3 1.6-.3-.4.7-.8 1.3-1.6 1.8-.4-.2-.4-.7-.4-.7z"/><path fill="#51457B" d="M217.8 115c.2 0 .2.6.3.8v1c-.6 0-1.1 0-1.8-.7.1-1 .4-1.4.7-1.8.1.3.3.5.8.7zM220 113.7c-.4.3-.8.3-1.6.3.1-.3.6-.7 1.3-1 .3.1.3.3.3.7z"/><path fill="#D3D7DF" d="M196 119.3c.5-.2 1.1 0 1.7.2-.4.5-.7 1-1.4 1.4-.3-.4-.3-.8-.3-1.6zM214.8 115.6l-1.7 2c-1.6.5-3 .9-5 1-2.5 0-4.3.3-6.1.6-1-.5-2-.9-2.5-1.7l7.8-5.4c.5-.3.7-.6 1.1-1 1.1 0 1.8-.1 2.7.1l3.7 4.4z"/><path fill="#5F588F" d="m211 111-2.7-.1a163.8 163.8 0 0 0-6.1 2.3l-1.8-.2c2.9-4.8 5.8-5.9 10-3.1l.6 1z"/><path fill="#B0A0C4" d="M202 113.5c1.2-.7 2.2-1.1 3.9-1.5.8 0 1 .2 1.2.2-2.4 1.7-4.8 3.3-7.6 5 .6-1.2 1.5-2.3 2.6-3.7zM202.3 119.4c1.5-.5 3.3-.8 5.4-.8-1.5.5-3.4.8-5.4.8z"/><path fill="#5F588F" d="M211.6 121c-.7.7-1.8 1.3-3.3 2 .8-.7 1.9-1.3 3.3-2zM204.8 122.7c-.8.2-1.8.1-2.8-.3.8-.2 1.7 0 2.8.3z"/><path fill="#F9F9FB" d="m183 256.5-13.7-1.3c-1-6.2-1.6-12.3-2.3-18.7V231l-.1-2.1v-15.5c.8-3.8-1.3-8.2 4.3-10 2-.4 3.4-.5 4.8-.6l8 .1h28.7c9.6.5 18.9 1 28.3 1.7l.6.3s.4 0 .6.3l2.6 1.7 6 6.5 4 9.9c.1.7.3 1.2.3 2 0 2.9.2 5.2.1 8-1.2 4-2.3 7.6-3.7 11.4-3.7 3.6-7 6.9-10.9 10.3l-9 1.4H183m33-12.2c5 0 10.2.2 15.3 0 5.5-.2 9.5-2.7 11.6-8.8.2-1 .6-1.9.7-2.9 1-10.1-3.9-18.4-15-17.7-5.7.4-11.5.2-18.2.2a106.8 106.8 0 0 1-10.3 0h-20.6l-.5 1.8a1018.5 1018.5 0 0 1 .1 26.7l1.8.7h35z"/><path fill="#31376B" d="M212.3 202.9h-27.8c.1-1.3.5-2.7 1.4-3.7 1.6-1.8 3.5-3.3 6.1-5.7 2.3 0 6 0 8.1-4.3l-4.8-3.4 5.5-2.5c3.3-.6 6.4-.8 9.5-1.2 4.6-.7 8.3-.2 9.3 6l1.8-3 7.2 3.2a35 35 0 0 1-5.7 6.2c-.7.6-2.4 1.2-3 .8-4.2-2.6-6.8.1-9.5 2.5l2 5m-5.2-4.2v-1.2h-.5c0 .4 0 .8.5 1.2z"/><path fill="#3C3B71" d="M176 202.5c-1.4.5-2.7.6-4.5.7-.4-2.3-.4-4.5-.4-7 4.9-1.2 4.3 3 4.9 6.3z"/><path fill="#2D446F" d="M155 210.6c-.3-.3-.4-.7-.4-1h.8c0 .3-.1.7-.4 1zM152 210.4c.3.4.3.8.3 1.2h-.5c0-.4 0-.8.2-1.2z"/><path fill="#2B4E80" d="M166.5 229c.4.4.5.9.5 1.7-1 0-1.7-.3-2.5-.6.5-.4 1.1-.7 2-1.1zM159 234.4c.3.4.3.8.3 1.2h-.5c0-.4 0-.8.3-1.2z"/><path fill="#385893" d="M183 256.9c6.3-.4 12.7-.5 19.5-.1a37.3 37.3 0 0 1-11.8 15c-1.4 1.2-3.1 2.1-4.7 3.2l-4.6 2c-3.2.5-6.1 1-9 1 .5-3.1 1-5.6 1.6-8 2.3-2.9 4.8-5.6 7-8.6.9-1.2 1.3-2.7 2-4.5z"/><path fill="#2E5C97" d="M173.6 270c-.2 2.4-.7 4.9-1.5 7.7-6 3.4-11.8 6.4-17.6 9.6-6.2 3.3-12.3 6.9-18.6 10.2-1.5.8-3.4 1-5.5 1.5 1.2-1.8 2.5-4 4.5-5.2 10-5.5 20.3-10.5 30.2-16.1 3.1-1.8 5.5-5 8.5-7.7z"/><path fill="#31426F" d="M226.4 409c-2.8-2.3-3.3-4.8-.2-6.4 1.1-.6 4 .3 4.9 1.5 2 2.3 0 4.6-4.7 5z"/><path fill="#2C4573" d="M290.9 379c-3 .3-6 .7-9.5.7-3.7-6-7.8-6.7-13.6-2.7-3.4.4-6.5.7-9.6.6v-3c1.4-1 2.5-2.3 3.8-2.5 13.3-2.1 26.7-3.8 40-6.3 3.7-.7 8.8.7 11.5-4.1l6.5.3 13-.2c1.2-1.9 2-3.8 3-6.1 1.2 1.9 2.4 4 3.2 6.2-1.8 1.1-3.3 2.3-4.9 3.1-2.7 1.5-5.4 3.2-8.4 3.9-6.6 1.4-13.3 2.1-20 3.4-1 .2-2 1.5-3.3 2.4-2 2.3-3.7 4.5-5.4 6.8l-.8-1.8-1-2.8c-2-3.8-3.8-2.9-4.5 2.1z"/><path fill="#31426F" d="M303 374.6c1-.8 1.8-2.1 2.9-2.3 6.7-1.3 13.4-2 20-3.4 3-.7 5.7-2.4 8.4-3.9 1.6-.8 3-2 5.3-3 4.7 0 2.4-3.4 3.3-5 3-.7 6-1.3 9.4-1.5.6 2.6.7 4.9.9 7.5 2.6-.8 6.7 2 5.7-4 0-.9 0-1.4.2-2.2l-.1-2.2 8.5-.6c-.1 1.8-.5 3.7-1.5 5.4-1.6 2.8 0 3.3 2.6 3.6-2.3 1-5 2.3-7.8 3-8.8 2-17.7 3.8-26.5 5.9-.8.1-1.5 1-2.2 2-.5.7-1 1-1.9.8-6.5-3.7-12-1.6-12.2 4.3-.5 2.7 1.4 6.3-3.5 8.5l-1-10.6c-2.8.4-5.7.7-9 .7-.8-1.2-1.1-2-1.5-3z"/><path fill="#2A456D" d="M248.2 386.6c-1.2 1-2.3 2.2-3.6 2.6a45 45 0 0 1-26.6-.7c-.8-.2-1.6-.4-2.8-1-.6-2.1-.8-3.8-.5-5.5 3.6-.3 6.9-.7 10.2-.6.3 4.7 3.2 6.6 7 6.5 3.6-.2 6-4.5 5.8-9.4 3.5-1 6.8-1.8 10.2-2l.3 10.1z"/><path fill="#D3D7DF" d="M302.6 374.7c.8.8 1 1.7 1.5 3-.1 3.3-.3 6.2-.6 9.1h-1.4l-1.4-4.4-3 5.2-3.3-5.2-1.2 4.4h-1.6l-.6-7.4c.6-5.4 2.5-6.3 4.3-2.5l1 2.8 1 1.8c1.6-2.3 3.3-4.5 5.3-6.8z"/><path fill="#2A456D" d="M258.3 378c3-.3 6-.6 9.5-.5 1 3 1.6 5.8 2.2 8.5-3.8.4-7.7.8-11.8.6-.1-3.3 0-6 .1-8.6z"/><path fill="#D9DEE5" d="M270.3 386.3c-1-3-1.5-5.7-2.1-8.8 5.4-4.5 9.5-3.8 12.8 2.2-1.5 7-2.9 8-10.7 6.6m7.9-4.8c-1.2-1.5-2.2-3.2-3.7-4.3-.4-.3-3 1.2-3.2 2.2-.3 1.3.7 4.1 1.2 4.2 1.8 0 3.6-.8 5.7-2.1zM258.2 377.6c0 3-.1 5.7-.4 8.8-.7.4-1.4.4-2.5 0-1.5-2-2.6-3.7-3.6-5.4-.4 0-.7.2-1 .3v5l-2.2.4c-.4-3.3-.5-6.6-.4-10.6 5.1-2.8 3.8 3.9 6 4.2l4-5.3.1 2.6z"/><path fill="#E5E9EE" d="m214.2 382 .6 5.5c0 .4-.6.3-.6.3s-.4 0-.8-.3c-1.6-2-2.7-3.6-4.5-.7-.4 0-.8 0-1.5-.4-.4-1.8-.5-3-.5-4.8l.1-6c2.9.1 5.5.5 8.1 1l-.9 5.4z"/><path fill="#2A456D" d="M182.5 384c-.7-1.9-1-3.8-.7-5.9 4-.1 7.5-.1 11 .3l.1 7.6-10.4-2z"/><path fill="#2E3D66" d="M318.4 379c-.2-5.9 5.3-8 11.6-4.3l-3 5c-2.7 0-5.4-.4-8.6-.7z"/><path fill="#2A456D" d="m206.8 382 .3 4.4c-3.5.4-7 .4-11 0-.3-2-.1-3.7.4-5.4l10.3 1z"/><path fill="#D9DEE5" d="M196 381c0 1.7-.2 3.3-.4 5.4-.8.3-1.5.1-2.5-.2-.2-2.6-.2-5-.3-8-.7-1.6-1.2-2.4-1.4-3.3 2.5 0 4.5.1 6.6.4 0 .3.2.7 0 1l-2 4.7z"/><path fill="#2A456D" d="m250.8 386.7-.1-5.4 1-.3 3.3 5.4c-1.2 1.3-2.4 4.1-4.2.3zM209.1 387c1.6-3.1 2.7-1.6 4 .6-1.1.1-2.4 0-4-.5z"/><path fill="#3E244F" d="M268 116.4c1 .7 2 1.8 3 3.2-1-.7-2-1.8-3-3.2z"/><path fill="#2E5C97" d="M145 353c-2.8-.4-5.6-.9-9-1.2-.6-.9-.8-2-.4-2.7.5-.9 1.6-1.4 2.4-2.1 5.4-2.1 11-3.8 14.4-9.9 1.4-.4 2.8-.2 3.2-.7 4-5 5.7-2 7.7 3.5a39 39 0 0 1 1.9-6.9c.8 0 1.3 0 2 .3 5.2 5.9 5.1 5.9-1.2 9.7-.8.5-1.3 1.3-2.3 2-1.5 1.7-2.6 3.3-4.2 4.8l-6 .2-8.5 3z"/><path fill="#2F649C" d="M137.7 347c-.5.7-1.6 1.2-2 2-.5.8-.3 2 0 3 .4 1.6.5 3.2.6 5.2l-13.9 1.1 4.4-5 3.3-3.1c.6-.6.8-.9.9-1.2 1.9-1.5 3-5.4 6.7-2z"/><path fill="#DDE4EE" d="m164.8 333-1.5 7c-2-5.6-3.8-8.7-7.7-3.6-.4.5-1.8.3-3 .4.2-1.7.8-3.3 1.5-5.3 1.2-2.2 2.4-4 4-6.2 1.7 1 2.7 2.4 3.7 3.7l3 4z"/><path fill="#2E5C97" d="M130.7 349c.2.3 0 .6-.5.9-.2.1-.2-.4-.2-.6.2-.3.3-.3.7-.3z"/><path fill="#3B6EAB" d="M165.2 333c-1.4-1.3-2.4-2.6-3.4-4-1-1.3-2-2.7-3.4-4 .8-3.1 2-6.2 3.2-9.5-1.8-.4-3.5-.7-5.4-1.3 0-.7.2-1.2 1-1.8 5-1.5 9.5-2.9 14.4-4.2 4.6-.8 8.9-1.6 13.4-2.2 2.6 1.1 4.8 2 7 3.4a13 13 0 0 1-3 3.3c-1.2-.5-2.3-.5-3.3-.8-1.3-.5-2.5-1.3-3.4-2 .6-.3 1-.6 1.2-.9l-.6-.5c-.3.5-.6 1-1.3 1.5-2 1.7-3.8 3.4-6 5h-8.2v2h18c-3.4 4-3 7-.1 10 1 1 1.1 2.6 1.5 4.3-1.9.8-3.7 1.2-5.6 1.4-1.5-1.6-3-2.9-4.6-4.4l4-.7.1-1.8c-1.9 0-4.6-1-5.6-.1-4.7 4.2 2.4 5.1 2.9 7.4-1.9.7-3.4 1.3-5.2 1.8-2.2-.6-4-1.3-5.8-1.9h-1.8z"/><path fill="#285185" d="M157 369c-3.4.5-3.8-2.1-4.9-4.7.4-1 .9-1.6 2.1-2.3 2.4 0 4.1 0 5.8.2 1 .9 2 1.3 3.5 1.8h7.2l-1.7-6h.4c1.4 1.1 2.7 2 3.6 3.3 1.6 2 2.9 1.8 4.5-.3 4-.3 7.7-.7 11.6-.7 1.3.4 2.5.5 4.2.7l12.3-1c5.3 3.4 7.3 2.6 9-3l6.7 1.2 2.7 3v1c.7 1.8 1.3 3.3 1.6 4.8-10.2 1-20 1.6-29.7 3.2a71.1 71.1 0 0 1-31.6-2.8c-1.5-.4-3.5 1-5.6 1.6H157z"/><path fill="#D3D7DF" d="M160 361.9h-5.5a51.9 51.9 0 0 1-.5-12c1.7 0 3.4 0 5.8.2 5.2 3.2 4.9 6.8 1.8 10.8l-1.6 1z"/><path fill="#3A6AA4" d="M153.6 350c.3.8.3 1.5.2 2.7-3 .6-5.8.8-8.7.7 2.6-1.4 5.4-2.4 8.5-3.4z"/><path fill="#264B70" d="M136 366.7c0 .3-.5.3-.8.3 0-.4.1-.9.3-1.3l.5 1z"/><path fill="#294B79" d="M157 369.4c.5-.4.9-.4 2-.4 3.8 1.9 8.7 0 10 5l-6 6.2c-1.3-1.6-2.4-3.6-4-6.4l-2.9 5c-4 .3-2.8-1.5-1.3-3.5.9-2 1.5-3.8 2.2-6z"/><path fill="#7D84BA" d="M269 268c1.1 1.4 2.1 3.7 3.3 3.8 18.4 1.5 35.1 8.8 52.5 13.7 8 2.3 15.8 5.7 23.6 8.8 2.5 1 4.9 2.7 7.4 4.7l.2 1c-5-1.7-10.3-3.2-15.3-5.2-19.2-7.5-38.8-14-59-18.3-5.3-1.2-10.7-1.6-16.1-2.5-.9-.2-1.6-.9-2.3-2 1-1.7 1.9-2.8 3-4h2.7z"/><path fill="#ADBDDE" d="M345 309c-1 .2-2.1.1-4-.1-6.1-1.5-11.5-2.7-17.2-4.2-1-.6-1.9-1-2.8-1.8-3.9-3.8-7.7-7.4-11.7-10.7-3.3-2.6-6.9-4.8-10.3-7.2 2.4.3 4.8.7 7.6 1.4l5.4 2.6h.8c1.1 1 1.9 2.4 3 3 9.3 5 18.6 9.7 28 14.5.5.3.8 1.3 1.2 2.4z"/><path fill="#A5B5DA" d="m221 284 7.6-4c12.7-1 25-2.9 37.3-2.7 11.3 0 22.5 2.1 33 7.3.1.4.1.4-.3.4-5.5-1.2-10.6-2.6-15.7-3.5-3.3-.5-6.6-.4-10.2-.5-.8 0-1.2 0-1.7-.4a59 59 0 0 0-8.5-.6c-3.4 0-6.5 0-9.8-.3-2.7.2-5.2.7-8.1 1.2-1.1 0-1.9 0-2.8-.2-1.4.3-2.6.8-4.2 1.3h-3l-13.6 2z"/><path fill="#7D84BA" d="m229.4 277-5 1c1.6-1.4 3.5-2.9 6-4.6 3.9-.9 7.3-1.8 10.7-1.8 6.6-.1 13.3.2 19.9.4-.6.6-1.1 1.7-1.8 1.8-3.5.4-7 .5-10.6.9l-19.2 2.3z"/><path fill="#6F75B0" d="M261.3 272c-7-.2-13.6-.5-20.2-.4-3.4 0-6.8.9-10.7 1.4-.4 0-.4 0-.4-.3 1-1.2 2-2 3.4-2.7l4.9-.6c9.2-1 18.3-4.6 27.7-1.4l-2.8 3.7c-.6.2-1 .3-1.9.3z"/><path fill="#7D84BA" d="M393 319.6c-.4.4-.9.4-1.7.4-5.4-2.6-10.5-5.3-16-8.4L372 309c-.5 0-.9 0-1.7-.4L366 306s-.5 0-.8-.3L361 303c-.6-.4-1.3-.9-2-2v-1c1 0 2.2-.2 3 .2l30.3 17.8c.3.2.4.8.7 1.6z"/><path fill="#A2B3D8" d="M311.9 288.7c-1.5-.5-3.2-1.2-4.9-2.3 1.6.4 3.1 1.2 4.9 2.3z"/><path fill="#8B93C1" d="M361 303.4a13 13 0 0 1 4 2.3 13 13 0 0 1-4-2.3zM366 306.3c1.3.5 2.6 1.2 4 2.3-1.3-.4-2.6-1.2-4-2.3zM372 309.4c1 .4 2 1.1 3 2.2-1-.4-2-1.2-3-2.2zM358.8 299.7c.2.4.2.6.2 1-.9.1-1.7 0-2.8-.4-.2-.4-.2-.6-.2-1 .9-.1 1.7 0 2.8.4z"/><path fill="#D9DEE5" d="M342.8 356.6c-.8 2 1.5 5.4-2.9 5.2a72 72 0 0 1-3.8-6.1c-1 2.3-1.9 4.2-3.1 5.7-.5-2.8-.7-5.1-.7-7.8V351c1.4.2 3.1 0 4.1.7 1.2.9 1.8 2.6 2.5 3.8a33 33 0 0 1 3.5-5.3c.4 2.1.4 4 .4 6.4z"/><path fill="#DDE4EE" d="M358.8 359.4c1.1 5.6-3 2.8-5.6 3.6l-.5-7.6c0-1.9.1-3.4.3-5h6.2l.1.9-5 2.2c2 .5 3 .8 4.4 1 .4.8.5 1.4 0 2.3l-3.3 1.1.2.9 3.2.6z"/><path fill="#3D4E87" d="M331.9 351c.4.8.5 1.5 0 2.6a47 47 0 0 1-8.8 2c-.2-.9-.3-1.6-.1-2.5l3.5-4.7c-.8-.5-2-1.5-2.4-1.3-1.5.8-2.8 2-4.6 3l-7.8.8c-.7-.4-1.2-.6-1.7-1.3l-3-4c-2-3.1-4.1-5.9-6.1-9.1 0-4.1 0-7.8.3-11.6l4.8-.9c1.8.7 3.7 1.4 5.7 2.4-2.6 2.6-1.8 5.5-.2 7.8 1 1.4 3.3 3 4.8 2.7 2.2-.4 4.4-2 6.3-3.6.6-.6.5-2.2.7-3.3h8.9c.5 2.3.7 4.5 1 6.7l1.3.2 1.4-6.5 3.3 5.7c-2.5 3-5.5 5.3-7.5 8.3-1 1.5-.2 4.3.2 6.6z"/><path fill="#494A80" d="M349.6 335.5c.4.8.5 1.5.6 2.1l-1.7-.2c.3-.7.5-1.4 1.1-2z"/><path fill="#4D5B97" d="M306.2 323.7c-1.7.6-3.1.8-5.3 1.2l-3.2 2-5.5-3.5 1.3-.5c-.5-3.6-1-7.3-1.1-11 7.2-1.1 14.2-1.7 21-3 3.7-.7 7.1-2.6 10.6-4 5.5 1.3 10.9 2.5 16.7 4-2 2-4.2 3.7-6.5 5.8-7.6 2.3-15 4.3-22.3 6.4-2 .5-3.7 1.5-5.7 2.6z"/><path fill="#E5E9EE" d="M323.1 329.7c0 1.4.1 3-.5 3.6-2 1.5-4 3.2-6.3 3.6-1.5.3-3.9-1.3-4.8-2.7-1.6-2.3-2.4-5.2.6-7.8 6-2.7 7.4-2.3 11 3.3m-4.5 4.5c.4-1.8 1.2-3.7 1-5.4 0-.7-3-1.8-4-1.3-1.2.7-2.7 3.5-2.3 4 1 1.5 3 2.1 5.3 2.7z"/><path fill="#5D619A" d="M241 255c3.4-3.3 6.8-6.6 10.7-9.8l6.2 2.8 1 6.8-.2 2.6 1.4-1.7c2.8-.6 5.6-1.2 9.2-1.8 2.6.8 4.4 1.6 6.3 2 2.3.6 5 .2 6.9 1.3 4.3 2.3 8.2 5.2 12.3 8 8.2 5.8 18 7.5 27.4 10.8.5 0 .6 0 1 .3 1.4 0 2.6-.1 4-.3.3 0 .8 0 .9.2.4.4.7.6 1.3.8.7 0 1.2 0 1.6.3.7.8 1.4 1.3 2 1.7 1 1.4 2 2.9 3 4.7-4.8-1.3-9.5-3.1-14.4-4.6l-34.5-10c-2.5-.7-5.1-1-7.9-1.3-1.3.2-2.3.2-4 0-1.5-.5-2.3-.6-3.2-.8-.4 0-.9 0-1.7-.3l-3.5-2a87 87 0 0 0-8.5-3.7l-9-2.7c-5.8.4-6.4.2-8.3-3.3z"/><path fill="#64659F" d="M267 265c1 .4 2 .9 3 1.7-.3.5-.5.7-1 1.1-.2.3-.3.2-.9 0l-1.1-1.1V265z"/><path fill="#5B69A2" d="M272 267.3c.9-.1 1.7 0 2.8.4-.8.2-1.7 0-2.8-.4z"/><path fill="#5D619A" d="M341 285.3c.6.2 1.3.6 2 1.4-.6-.2-1.3-.6-2-1.4z"/><path fill="#2C4B7B" d="M169.3 373.9c-1.6-4.9-6.5-3-10-4.9 1.5-.6 3.5-2 5-1.6 10.4 3 20.7 4.5 31.6 2.8 9.7-1.6 19.5-2.2 30-3 5.5 2.3 10.3 4.6 15.2 6.7.8.3 2.8-.3 3-1 1.6-3.2 2.7-6.6 4.3-9.9l13-1c3.5-3.3 6.7-4.7 10.2 1 .2-2 .2-3 .6-4.1 3.3-.5 6.3-.6 9.2-.3.3 1.7.7 4 1.2 4.1 2.2.2 5.4 1.6 6.2-2.7l-4.1-1.4c.7-1.2 1.2-2 2.2-2.8 3.6-.2 6.8-.5 10-.4.1 1.3-.1 2.2.2 2.9.5 1.3 1.3 2.4 2 3.6.6-1.2 1.4-2.3 1.6-3.6.3-2.4.2-4.9.6-7.2a97 97 0 0 1 8.7 5.2c1.1 2 2.1 3.6 3.2 5.2-2.4 5-7.5 3.6-11.2 4.3-13.3 2.5-26.7 4.2-40 6.3-1.3.2-2.4 1.5-3.8 2.6l-4 5.6c-2.3-.3-1-7-6.2-4.6-3.5 1-6.8 1.7-10.5 2.5-2.7-1.2-5.4-3.8-7.2-3.3-2.2.7-3.7 4-5.5 6.1l-10.1 1c-.2-1.8.1-3.6.4-5.5-2.6-.4-5.2-.8-8.5-.8-2.6.6-4.6 1-6.6 1l.9-4.1-1.4-.5-1.5 3-7-.2-10.2.5-6.4.5c-1.1-.3-1.7-.6-2.4-.9-.8-.4-1.6-.8-2.7-1.1z"/><path fill="#294B79" d="M174 380.1c1.7.8 3.4 2 5 3.3l-.3.7-4.3-1c-.4-.8-.4-1.7-.3-3zM172 375.3c.7 0 1.3.3 2.1.9.2 1 .1 1.6 0 2.5-.7-.8-1.4-2-2-3.4zM180.9 375.6c3-.4 6.2-.5 9.7-.7 1 1 1.5 1.7 2.1 2.8-3.4.3-6.8.3-10.7.2-.6-.7-.8-1.4-1.1-2.3z"/><path fill="#5070AF" d="M233 270c-1 .8-2 1.5-3 2.6-9.7 2.5-19.4 4.3-28.9 7-11.9 3.3-23.6 7.5-35.7 11.3 2.9-1.9 6-4.3 9.5-5.7 11.2-4.4 22.5-8.4 33.8-12.5 1.6-.6 3.2-.8 5.5-1.4 3-.5 5.2-.9 7.5-1 3.7-.2 7.5-.2 11.3-.3zM161.2 292.2c.3-.5.7-.8 1.5-1.2-.2.5-.8 1-1.5 1.2z"/><path fill="#9ECDEC" d="M184.7 305.8c-4.2.8-8.5 1.6-13.3 2.2.4-2.5 1.5-4.7 2.6-7h.4c1.9.1 3.6.7 5 .2 5-2 10-4 14.8-6.5 1.3-.8 1.9-3 2.8-4.7.4 0 .9 0 1.7.3 2.3.4 4.2.8 5.9.2 2.6-.8 5-2.3 7.4-3.2-2.3 2.3-4.6 4-6.6 6l-8.6 9.3-12.1 3.2z"/><path fill="#B1D3EE" d="M197 302.4c2.8-3 5.5-6.1 8.4-9 2-2 4.3-3.8 6.8-6.2.5-1 .7-1.6.8-2.1 2.4-.4 4.8-.8 7.6-1.1 4.8-.7 9.2-1.3 14-1.6-5.4 2.8-11.3 4.8-16.5 7.9-5.4 3-10 7.3-15.3 11.2-2.2.5-4 .7-5.7.9z"/><path fill="#95C5E9" d="M196.6 290c-.5 1.6-1 4-2.4 4.7-4.8 2.5-9.8 4.5-14.8 6.5-1.4.5-3.1 0-5-.2 1.2-1.8 2.9-3.5 4.6-5.6 5.7-2 11.5-3.7 17.6-5.4zM212.6 285c.3.6 0 1.1-.4 1.8-2.7 1.4-5 3-7.6 3.7-1.7.6-3.6.2-5.5-.2 4.3-2 8.7-3.6 13.5-5.2z"/><path fill="#5B69A2" d="M233.4 270c-4.2 0-8 .1-11.7.3-2.3.1-4.6.5-7.3.7-.4-.4-.4-.9-.2-2 5.7-3.8 11.3-7 16.8-10.3.6-.3.7-1.4 1-2l8.6-1.6c2.3 3.4 3 3.6 8.7 3.2l9 2.7a87 87 0 0 1 8.5 3.7c.2.7.2 1.2.2 2.2v1.1h-.7c-9.7-3.2-18.8.5-28 1.4l-4.9.6z"/><path fill="#465D99" d="M231.6 256.5c.1.8 0 1.9-.6 2.2l-16.8 10c-8.6 2.5-17 4.7-25.4 6.9-.7.1-1.6 0-2.6-.3 1.4-1.4 3-2.3 4.5-3.5 2.3-2 4.6-4.1 6.5-6.5 2.1-2.5 3.9-5.3 5.7-8.4 9.5-.4 18.9-.4 28.7-.4z"/><path fill="#95C5E9" d="M173.6 301c-.7 2.3-1.8 4.5-2.7 7-4.2 1.5-8.7 2.9-13.5 4.3 2.8-6.9 9-9.4 16.2-11.3z"/><path fill="#534C84" d="M331 277c-.4 0-.9 0-1.7-.2l-1.3-.8s-.5 0-1-.3c-1.6-.4-2.8-.6-4.2-.7-.5 0-.6 0-1-.3-3-2.7-6-5-9-7.3-10-8-20.2-15.7-32.6-19.9-1.6-.6-3-2-4.4-3 3-4.1 6-8.3 9.7-12.4 4 1.6 7.3 3.3 10.5 5.3-3.2 3.3-4.8 6.6-1 9.9 1.9 1.7 4.6 2.5 7 4.1.6 1 1.3 1.8 2 2.5l.7-.9a7.4 7.4 0 0 1-1.4-2.2l5.5-4.9c1.5.6 3.3.9 4.4 1.9 8.2 7.9 17.3 15 23.5 24.9 1.6 2.5 5.6 3.6 9 5.3h.3l13.5 9.2 1.2.7c-1 3-3 2-5 1-4.7-2.5-9.2-5.2-14-7.5-2.4-1.1-5.2-1.6-8.3-2.4-.4 0-.4 0-.4-.3-.7-.8-1.4-1.2-2-1.7z"/><path fill="#473E75" d="M250.7 213.2c-2-2-3.8-4-5.7-6.5 3.7-5.4 8.8-5.8 14.2-5.7 2 0 4.6.5 2.8-3 7.1 3.6 16 .2 22.6 5.7 1 .8 1.9 1.7 3 3 .2.3.2.3-.2 0-.8 0-1.3 0-1.8.2l1.7 1.1c-2.8 4-5.6 7.8-9.1 11.9-3.1-1.2-5.5-2.8-8-3.6-6.4-2.1-12.1-8-19.5-3.1z"/><path fill="#57558D" d="M275.5 244.7c1.7.8 3 2.2 4.7 2.8a111.4 111.4 0 0 1 32.7 19.9c2.9 2.3 5.9 4.6 9 7.5l.1 1.1c-9.2-3.3-19-5-27.2-10.8-4-2.8-8-5.7-12.3-8-2-1-4.6-.7-7-1.2-1.8-.5-3.6-1.3-5.9-2.2 1.6-3 3.6-6 5.9-9z"/><path fill="#504176" d="M331.2 250.2c-1.2 1.1-2.6 2-3.6 2.6-4.3-9.2-12-14.1-20.3-19.1-2.1-2-3.7-4.1-5.7-5.5-3-2-6.4-3.5-9.6-5.2l.4-1c8-11 8.8-12.5 17.1-1.1 7 9.7 14.4 19.3 21.7 29.3z"/><path fill="#49467E" d="M250.7 213.5c7.4-5.2 13.1.7 19.4 2.8 2.6.8 5 2.4 7.8 3.8-3 4.8-6.5 9.5-10.5 14.1l-12-1.2c-.1-2.4-.2-4.7 0-7.6 0-1.1-.2-1.8-.5-2.4l-4.2-9.5m14.6 12.6h1.4l-.4-1.6c-.4.3-.8.7-1 1.6m2.3 2.7h-1.2v.4c.4 0 .8 0 1.2-.4z"/><path fill="#51457B" d="M291.7 223.2c3.5 1.5 6.9 3 9.9 5 2 1.4 3.6 3.4 5.4 5.5 0 .3 0 .3-.3.3l-2 2-8.6 1-10.4-5.1c1.7-3 3.7-5.8 6-8.7z"/><path fill="#4F548C" d="M255.2 233.4c4 0 7.9.3 12 1-2.8 4.6-5.9 8.8-9.1 13.3-2.2-.6-4-1.5-6.2-2.7 1-4 2-7.6 3.3-11.6z"/><path fill="#5B69A2" d="M260 255.5c-.4.8-.8 1.3-1.3 2l.3-2.4c.4-.2.7 0 1 .4z"/><path fill="#443267" d="m287.5 208-2-1a4 4 0 0 1 2-.2c.3.5.3.8 0 1.1z"/><path fill="#F8F7F8" d="M296 237.4c2.9-.7 5.6-1 8.8-1.1l2 1.1c.7 2.6 1.4 5.2 2 8.1-1.8 2-3.5 3.5-5.8 5.2l-1 .4c-2.4-1.3-5.1-2-7-3.8-3.8-3.3-2.2-6.6 1-10z"/><path fill="#534C84" d="M306.9 237c-.6.1-1.1-.1-1.8-.7a5 5 0 0 1 1.6-2.3c.3.9.3 1.7.2 3zM346 278l1-1.5.5.5-1.2 1h-.3z"/><path fill="#472A5B" d="M301 170.6c-.7-.7-1-1.4-1.3-2.1l1.3-.2c0 .7.2 1.5 0 2.3zM318 180.5a4 4 0 0 1-.6-1.7h1.2c0 .6-.2 1.2-.6 1.7zM304.6 168.5c.5.1.7.4 1 .7l-.3.4a2 2 0 0 1-.7-1z"/><path fill="#3E2756" d="M226.3 126.8c-3.7-3.8-2.5-10.5 2.3-11.8-.5 3.9 3.5 8.8-2.3 11.8z"/><path fill="#3E244F" d="M255 139.4c-1.8 1-4 2-6.1 2.9l-.6-2.5c2.1-.2 4.3-.4 6.8-.4z"/><path fill="#3C3B71" d="M261.6 198c2.2 3.5-.5 3-2.4 3-5.4-.1-10.5.3-14.4 5.4-.9 0-1.7-.5-2.4-1.3 0-.9-.3-1.3-.4-1.8l-1.2 1.2-28.1-1.5c-1-1.8-1.7-3.5-2.3-5.2 2.7-2.4 5.3-5.1 9.5-2.5.6.4 2.3-.2 3-.8 2.1-1.8 4-3.9 6-6.2 4-.4 8-2 11.4 1.5.5.5 2.1-.1 3.5-.5 1.3 0 2.4.3 3.9.7l14 8z"/><path fill="#443267" d="M270.8 177.3c4.4-.5 7.3 1.2 9.2 5.3-3.4-.3-6.9-1-11-1.8l1.8-3.5z"/><path fill="#343265" d="m216 167 1-1.5.5.5-1.2 1h-.3z"/><path fill="#B0A0C4" d="m211.1 111.2-.4-1c1.6-.2 3.5-.2 5.7 0 .5 1.2.5 2.2.6 3.7l-1 2c-.2.2-.4.1-.9-.1a66.3 66.3 0 0 1-4-4.6z"/><path fill="#7D72A4" d="M207.3 112c-.4.2-.6 0-1 0 .2-.6.9-1 1.6-1 .1.5 0 .8-.6 1z"/><path fill="#31467E" d="M204.1 215.2c2.1 0 4.2 0 6.7.4a41 41 0 0 1-3.2 9.4l-8.1 2.1c1.4 4.9-2.6 3.5-4.4 4-.7 3.2-1.9 6-3.1 8.8l-2 4.2c-3 .1-6 .2-9.6-.1l-1.2-1c0-.4-.1-.9.2-1.7l1.2-1.3-1.4-1v-22.6c.6-.7.7-1 .8-1.2 6.7 0 13.4-.1 20.5.3l1.7 2.1 1.9-2.4z"/><path fill="#424C82" d="m208 225 3.2-9.4c6-.5 11.7-.3 17.5-.7 11-.7 15.8 7.6 14.9 17.7-.1 1-.5 2-1.3 3.2-2.5-.1-4.5-.4-6.3-.8l-11.3-3.2c-2-1-3.5-2.2-5.2-2.8-3.8-1.5-7.7-2.7-11.5-4m27.8 2.8-.6.2c.2 0 .4.1.6-.2z"/><path fill="#3D4E87" d="M207.6 225c4.2 1.3 8.1 2.5 11.9 4a22 22 0 0 1 5.2 3.2c-1.4 2.1-2.9 4.6-4.8 5.1-4 1-4.8 3.4-4.9 6.8-8 .1-16 .2-24.5.1.2-1.5.9-2.9 1.5-4.3 1.2-2.8 2.4-5.6 3-8.7 2-.6 5.9.8 4.5-4l8.1-2.2z"/><path fill="#48518A" d="M215.5 244.2c-.4-3.5.4-5.9 4.4-6.9 2-.5 3.4-3 5-5 3.7.7 7.4 1.8 11 2.7l6.2 1.1c-1.3 5.5-5.3 8-10.8 8.2-5.1.2-10.2 0-15.8-.1z"/><path fill="#424C82" d="M203.8 215.1c-.3 1-1 1.7-1.6 2.5-.4-.5-.8-1-1.2-2 .8-.4 1.7-.5 2.8-.5zM179.1 239.3c.6 0 1 .3 1.5.7l-1.1 1c-.4-.4-.4-.9-.4-1.7z"/><path fill="#4F548C" d="M254.8 223.4c.4.2.7.9.7 1.6-.4-.4-.6-.9-.7-1.6z"/><path fill="#473E75" d="M241 204.7c.2-.6.6-1 1-1.4.1.5.3.9.2 1.5-.2.2-.6.2-.6.2l-.6-.3z"/><path fill="#424C82" d="M179.2 243.3c.3-.1.5 0 .7.6-.2 0-.5-.1-.7-.6zM179.7 215.2c.2.3 0 .5-.3.7-.1-.2 0-.5.3-.7z"/><path fill="#3C3B71" d="M207 198.6a2 2 0 0 1-.3-1.2h.5c0 .4 0 .8-.3 1.2z"/><path fill="#DDE4EE" d="M313.5 361.7a30 30 0 0 1-3.4-5.7c.6-2.1 1.2-3.6 1.9-5 2.4-.3 4.7-.7 7.7-.7l3 3 .3 2.7c-1.1 2.4-2.3 4-3.4 5.8l-6.1-.1m-.1-3.9c1.8.4 3.7 1 5.4.8.6-.1 1.4-3 1-4.2-.6-1-3.4-2.4-3.8-2-1.3 1.2-2 3-2.6 5.4z"/><path fill="#31467E" d="M320 362c.7-2 1.9-3.6 3.1-5.6 2.8-1 5.6-1.7 8.7-2.4.5 2.3.7 4.6.8 7.3-4 .6-8.1.7-12.6.7z"/><path fill="#3B4378" d="M358.9 359c-1.1.2-2.2 0-3.3-.2l-.2-.9c1-.3 1.8-.6 3.2-.8.4.5.4 1 .3 2z"/><path fill="#D9DEE5" d="M225 381.4c1.6-2.5 3-5.8 5.3-6.5 1.8-.5 4.5 2.1 7 3.7.6 4.8-1.8 9.1-5.4 9.3-3.8 0-6.7-1.8-7-6.5m7.4 3c.8-1.7 2-3.4 2.3-5.2.1-.5-2.3-2.2-3.3-2-1.3.3-3.4 2.3-3.2 2.8.6 1.7 2.2 3 4.2 4.3z"/><path fill="#3E487E" d="M278 381.9c-1.9.9-3.7 1.7-5.5 1.7-.5 0-1.5-2.9-1.2-4.2.3-1 2.8-2.5 3.2-2.2 1.5 1 2.5 2.8 3.5 4.7z"/><path fill="#2C4573" d="m200 377 6.4-1c.5 1.7.5 3.4.5 5.6-3.4 0-6.7-.3-10.4-.6.1-1.4.7-2.9 1.7-4.5.9 0 1.3.2 1.8.5z"/><path fill="#285185" d="M200 376.6c-.5.1-1-.1-1.6-.5-.2 0-.4-.5-.4-.8l1.5-3.2 1.4.5-.9 4z"/><path fill="#356BA6" d="m181.4 333 5.8-1.7a14 14 0 0 1 3.2-1.5c.7.7 1.3 1.2 1.7 2 0 .8-.1 1-.5 1.4l-2.3.8-4.7.6 9.6 7.3c.8.8 1.2 2 1.5 3.2-2.5.7-4.6 1.3-7 1.8l-6 1c-2.3-1.6-4.1-5-7.1-.9-4.4 1-9 4.8-11.6-2 .7-.7 1.2-1.5 2-2 6.3-3.8 6.4-3.8 1.1-9.7 1.7.3 3.5 1 6 1.9 5 3.1 6.4 2.7 8.3-2.2z"/><path fill="#3A6AA4" d="M163.7 345c3 6.8 7.5 3 12 2.4 3.6 4.5 3.6 9 1.4 13.6-1.2 2-2.5 2.4-4 .3-1-1.2-2.3-2.2-3.8-3.4l-.7-.3.4.4 1.7 6c-2.4 0-4.6 0-7.3-.4-.8-1.1-1.1-2-1.5-2.8 2.8-4 3.1-7.5-1.6-10.7.8-1.8 1.9-3.4 3.4-5zM190.2 329.6c-.8.5-1.6 1-2.8 1.4-1-1.4-1.2-3-2.1-4-2.8-3-3.3-6 0-10h-18v-2h8.8l12.9-2 3.4-3.6c4.8-.7 9.2-1 13.6-1a19 19 0 0 0 1 2.6c3.2 6.6 2.8 7.2-4.5 8-3.6.5-7.1 1.1-10.6 2-3.5 1-4.2 3.9-1.8 6.3v2.3z"/><path fill="#4270AE" d="m206 308-13.6 1-7.4-3c3.6-1.2 7.5-2.2 11.8-3.4l6.4-1a72 72 0 0 1 9.9-1c.3 1 .6 1.7.7 2.7-2.5 2.2-7 .2-7.8 4.7z"/><path fill="#DDE4EE" d="M181.2 332.7c-1.7 5.2-3.1 5.6-7.8 2.5a23 23 0 0 1 4.6-2c-.5-2.4-7.6-3.3-3-7.5 1-1 3.8 0 5.7.1v1.8l-4.1.7 4.6 4.4z"/><path fill="#4270AE" d="M189 312.7c-4 1-8 1.6-12.6 2.3 1.4-1.6 3.1-3.3 5.2-5 1.6.6 2.8 1.4 4 1.9 1 .3 2.2.3 3.3.8zM182.3 310c0-.5.3-1 .6-1.5l.6.5-1.2 1z"/><path fill="#26558E" d="M189 347c2.1-.6 4.2-1.2 7-1.6 7.3 0 14.2-.2 21 0 .7.7 1.4 1.1 2 2a17 17 0 0 0 1.4 4.6c1.4-.4 2.5-.7 3.7-.6 0 1.1-.1 1.8-.5 2.6a24 24 0 0 0-2.6 4c-2-.3-4-.6-6.6-1.4a47 47 0 0 1-1.4-6.7c-3.4 2.8 0 7.2-4.8 9.6l-.4-9.4-2-.2c-1.6 3-.5 6.6-.6 10-3.8.4-7.6.7-11.9.7.8-3.7 2-7 3.1-10.3l-1.5-.7-4 7.1c-1.2-2.5-2-4.6-2.9-7 .3-1.1.7-1.9 1-2.7z"/><path fill="#2E5C97" d="M248 363c-1.2 3.3-2.3 6.7-3.8 10-.3.6-2.3 1.2-3.1.9-4.9-2-9.7-4.4-14.8-6.7-1-1.7-1.6-3.2-1.9-4.9l5.5-.4-2-3.1-.7-1.2c0-1.4 0-2.5.4-3.6 4.1 0 7.8 0 11.5.4.6 6.4 2.3 7.8 8.9 7.9v.7z"/><path fill="#26558E" d="M177.5 361c1.8-4.6 1.8-9-1.5-13.6 2.6-4.6 4.4-1.1 6.7.8l2.3 3.1 3.9 8.7-11.4 1z"/><path fill="#F8F7F8" d="M205.6 360c-.3-3.5-1.4-7 .3-10.1l1.9.2.4 9.4c4.8-2.4 1.4-6.8 4.8-9.6l1 6.7c-1 6-3.1 6.8-8.4 3.3z"/><path fill="#D9DEE5" d="M189 360.3c-1.3-3-2.6-5.9-3.8-9.3 1-.7 1.8-.8 2.8-1l2.8 6.7 4.1-7.1 1.5.7-3.6 10.3c-1.2.2-2.4 0-3.7-.3z"/><path fill="#D3D7DF" d="m228 359 2 3h-5.6c-.3-.2-.3-.6-.3-1.2l-.2-6.8.4-3c4.3-1.9 2 1.9 3 3l-.2 3.9c.4.8.6 1 .9 1z"/><path fill="#2E5C97" d="M223.6 354c.4 2 .5 4.1.4 6.6-.9-.5-1.7-1.3-2.7-2.4.4-1.5 1.1-2.9 2.3-4.2z"/><path fill="#265587" d="M161.6 360.9c.7.7 1 1.6 1.4 2.7-1 0-2-.5-3-1.4.4-.6.9-1 1.6-1.3z"/><path fill="#6F75B0" d="M267.3 268c-.3-.1-.3-.3-.3-.7.3-.2.6 0 .9.5 0 .2-.4.2-.6.2z"/><path fill="#53609E" d="M323.8 304.7c-3.3 1.6-6.7 3.5-10.3 4.2-6.9 1.3-13.9 1.9-21.5 2.8-2.4-1.6-4.2-3.1-6.3-4.7-2.8-3-5.2-5.9-7.3-8.8 7.2.5 13.9 1 21 1.8l6 .7 9 1.6c2.4.5 4.6.7 6.7 1l2.7 1.4z"/><path fill="#BAC9E4" d="M321 303c-2 0-4.2-.2-6.7-1-6-4.4-11.4-9-17.5-12-7.6-3.7-15.8-6-23.8-9 3.3.1 6.6 0 9.9.5 5.1 1 10.2 2.3 15.7 3.5 3.8 2.4 7.4 4.6 10.7 7.2 4 3.3 7.8 6.9 11.7 10.7z"/><path fill="#CCDFF1" d="M272.7 281c8.3 3 16.5 5.3 24.1 9 6.1 3 11.5 7.6 17.2 11.8-2.7 0-5.5-.5-8.6-1.5-7.2-8.2-16.8-11.1-26-14a68.4 68.4 0 0 0-26.8-2.6 98.2 98.2 0 0 0-37.2 12.8c-.8.5-1 2-1.7 3.1l-.7.8-9.5.9c4.6-3.7 9.2-8 14.6-11 5.2-3.1 11.1-5 16.9-7.9.8-.4 1.5-.4 3-.4 1.8-.3 3-.7 4-1h3l8-1c3 0 6 0 9.8.3a97.4 97.4 0 0 0 9.9.7z"/><path fill="#BAC9E4" d="M271 280.6c-2.5.2-5 0-7.7-.3 2.3-.3 5-.2 7.7.3zM252.7 279.7a44 44 0 0 1-7.3 1.3c2-.6 4.6-1 7.3-1.3zM241.8 280.7c-.9.6-2 1-3.4 1.3.8-.5 2-1 3.4-1.3z"/><path fill="#36548D" d="M300.8 337c2 2.7 4.1 5.5 6 9a11 11 0 0 1-5.1.8c-1.2-.7-2-1.5-2.9-1.6-8.2-1.2-16.5-2.2-24.7-3.5a53 53 0 0 1 7.5-5l8-.7 3.8-1 4.9 1.2c1 .4 1.7.6 2.5.7zM311.7 350.9c-.4 1.5-1 3-1.7 4.8-2.9-1.3-5.6-3-8.8-4.8-.4-.2-.4-.5-.2-.8a3 3 0 0 1 1.4-1.1l7.6 1 1.7.9z"/><path fill="#D9DEE5" d="M300.9 336.5c-.9.3-1.6.1-2.6-.7a99.1 99.1 0 0 1-.2-8.8 15 15 0 0 1 2.5-2c.3 3.7.3 7.4.3 11.5z"/><path fill="#4D5B97" d="M323 353c-1-.5-1.9-1.4-2.9-2.6 1.2-1.3 2.5-2.5 4-3.3.5-.2 1.6.8 2.4 1.3L323 353zM310 349.6c-2.4 0-4.8-.3-7.6-1-.4-.7-.4-1.2-.4-1.6 1.5-.1 3-.3 4.8-.7 1.2.8 2.2 1.9 3.2 3.3z"/><path fill="#4B64A2" d="M297.7 327c.4.2.4.3 0 .8a36 36 0 0 1-8.7-1.2c-2.4-.9-4.7-1.4-7-2l-.4 1.7c1.2.5 2.3 1 3.7 1.8a41.7 41.7 0 0 1-4.2 6c-3 .4-5.6.7-8.5.9l-5.4-11.5c-1.7 3.1-2.6 4.8-3.9 6.5-2.7-.7-5-1.3-7.1-2.3 1.1-1.1 2.3-1.8 3.1-2.7l8-9c2 0 3.8-.7 5.2-.1 6.3 2.4 10.7-2.7 16.6-2.9l-3.1-6 5.7 4.8c.8 3.8 1.3 7.5 1.8 11.1l-1.3.5 5.5 3.6z"/><path fill="#53609E" d="M318.3 334.4c-2-.8-4-1.4-5-2.9-.4-.5 1.1-3.3 2.3-4 1-.5 4 .6 4 1.3.2 1.7-.6 3.6-1.3 5.6z"/><path fill="#57558D" d="M323 275c1.2.1 2.4.3 3.8.7-1 .5-2.2.6-3.6.3l-.2-1z"/><path fill="#64659F" d="M331 277.3c.6.2 1.3.6 2 1.4-.6-.1-1.3-.6-2-1.4zM328 276.2c.3 0 .5.1 1 .6-.2 0-.5-.2-1-.6zM322.8 275c.2.2.2.3.2.8-.2.2-.3.2-.8.2-.2 0-.2-.5-.2-.8.2-.2.3-.2.8-.2z"/><path fill="#2C5188" d="M301.7 346.8c.3.6.3 1 .3 1.9-.3.6-.6.8-1.4 1.2-5.2-.6-2.9 3.3-3.7 5.1-3.2.3-6.4.6-9.8.5.2-2 .7-3.4 1.3-5.1H280l4.6 2.9-3 4.9-9.7.4c-1.9-3-3.2-6-4.5-9l-1.8-.1L261 362l-12.7 1c-.4 0-.4-.5-.1-1 1.5-1.9 2.7-3.4 4.3-5 .8-5.7 4.2-10.4 9-10 5.6.5 8.7-2.3 12.4-5 8.3 1 16.6 2 24.8 3.2 1 .1 1.7 1 2.9 1.6z"/><path fill="#DDE4EE" d="M261.4 362c1.2-4.2 2.7-8.4 4.2-12.5h1.8l4.2 9.5c.2 1 .2 2 0 4-3.5-5.7-6.7-4.3-10.2-1z"/><path fill="#D9DEE5" d="m281.4 358.6 3.2-5.3-4.6-3h8.4a330 330 0 0 1-1.8 5.1l-2 3.2 4.2 1.4c-.8 4.3-4 2.9-6.2 2.7-.5 0-.9-2.4-1.2-4.1z"/><path fill="#D3D7DF" d="M297 355.4c.7-2.2-1.6-6 3.5-5.2.3.2.3.5.3.7 0 2.5.2 5-.1 7.4-.2 1.3-1 2.4-1.6 3.6-.7-1.2-1.5-2.3-2-3.6-.3-.7-.1-1.6-.2-2.9z"/><path fill="#57558D" d="M302 251.4c.2-.4.3-.5.7-.5l2 2.1-.8.9c-.6-.7-1.3-1.4-1.9-2.5z"/><path fill="#4F548C" d="M265.2 225.8c.3-.6.7-1 1.1-1.3l.4 1.6c-.5 0-1 0-1.5-.3zM267.6 229c-.4.3-.8.3-1.2.2v-.4c.4 0 .8 0 1.2.2z"/><path fill="#48518A" d="M235.8 228h-.6.6z"/><path fill="#465D99" d="M313.2 357.5c.8-2 1.5-3.9 2.8-5.2.4-.3 3.2 1 3.7 2.1.5 1.2-.3 4-1 4.2-1.6.3-3.5-.4-5.5-1.1z"/><path fill="#3D4E87" d="M231.9 384.4a12.6 12.6 0 0 1-3.8-4.4c-.2-.5 2-2.5 3.2-2.8 1-.2 3.4 1.5 3.3 2a14 14 0 0 1-2.7 5.2z"/><path fill="#2E5C97" d="M217 345c-6.8.2-13.7.4-20.7.3-.9-1.4-1.3-2.6-2.1-3.4l-9.6-7.3c2-.3 3.2-.4 4.8-.2 2.2 1.3 4.4 3.4 5.5 3 2.3-1.1 4-3.4 2-6.5-.3-.6-.2-1.4.1-2 3.5.1 6.6.2 9.5.6-.2 3.5.5 6.2 4 7.3 4 1.3 6.5-.8 9-3.8 3-.7 5.7-1.3 8.5-1.7.1 1 .3 1.5.1 2.5a240 240 0 0 1-10 5.1L217 345z"/><path fill="#DDE4EE" d="M196.5 328.8c.2.7 0 1.5.5 2.1 2 3 .2 5.4-2.1 6.4-1 .5-3.3-1.6-5.1-3 .4-.6 1-.8 2-.8 1.4.2 2.2.2 3 .2a371788 371788 0 0 0-4.4-3.9c-.3-.8-.3-1.5 0-2.7 1.7-1 3.3-1.8 5-1.8.3 0 .7 2.3 1.1 3.5m-1.5 0-1.2-1.3-.6.6c.4.3.9.7 1.8.6z"/><path fill="#3A6AA4" d="M188 349.7c-1 .5-1.9.6-3 1a5.8 5.8 0 0 1-2-2.4c1.8-.7 3.6-1.1 5.7-1.4 0 .9-.4 1.7-.7 2.8zM192.1 331.9c1 .3 1.8 1 2.7 1.8-.8 0-1.6 0-2.6-.2-.2-.6-.2-.9 0-1.6z"/><path fill="#285185" d="m169 358-.4-.4c.1 0 .2 0 .3.3l.1.1z"/><path fill="#3D63A0" d="M197 328.9c-.9-1.3-1.3-3.6-1.6-3.6-1.7 0-3.3.7-5.1 1.4-2.6-1.8-1.9-4.6 1.6-5.6s7-1.6 10.6-2c7.3-.9 7.7-1.5 4.5-8a19 19 0 0 1-1-2.7c0-.4 0-.4.4-.4l10 1c2.5.3 4.5.7 6.6 1.4.3 3.6.8 6.7 1 9.8 0 2.2.3 3.8 3.1 4 1.3 0 2.5.7 3.5 1.5l-2.7 5.3c-2.7.7-5.4 1.3-8.4 1.6 0-4-1.4-6.7-5-7.6-3.7-1-6.3.7-8 4.1l-9.5-.2z"/><path fill="#5070AF" d="M223 310a50 50 0 0 1-6.6-1.4c.1-2.6 2.4-5.5-2.4-5.6l-1-2.3c.2-.6.4-.8 1.2-1l8-1c13.2-.3 26-.6 38.8-.6.4 3.2.7 6 .6 9-2 .6-3.8 1.7-5.5 1.8-11 .5-22 .8-33.1 1.1z"/><path fill="#4A6CA9" d="M213.8 303.3c5-.2 2.7 2.7 2.2 5.3-3 .1-6.2-.2-9.6-.6.3-4.5 5-2.5 7.4-4.7z"/><path fill="#3D63A0" d="m217 345.3 1-6.4 10.4-4.8c5 4.5 8.6 4.4 11.1-1-1.5.5-2.8 1.2-4 1a7 7 0 0 1-4-1.6c-.6-.6-.5-3 .2-3.5 1-1 2.8-1.3 4.2-1.3 1.2 0 2.5.7 4.2 1.1 4.9.3 9.8-.2 9 6.8 0 .6 1.2 1.3 1.8 2 .7-.8 1.7-1.4 2-2.3.3-1.4-.3-3.1.2-4.4.5-1.2 2-2 2.9-2.9 2.3.7 4.6 1.3 7.3 2.3-.6 2.2-1.6 4-2.9 6.5 1.7-.2 3 0 3.4-.5 2.2-3 4.2-3.6 6.6-.1l2.5-1c2.6-.4 5.1-.7 8.1-.8.4 1 .3 1.5.2 2.1l-7 5.2c-4 3-7 5.8-12.6 5.3-4.8-.4-8.2 4.3-9.1 9.6-3.1-.5-5.6-.7-8.1-1l-.2 1.5 3.9 1.9c-3.8 1-6.4 0-6-3.1.6-6.8 5.7-2 8.8-2.5-3.1-5.5-7.4-5.2-11.8.6h-11.5c-1.3-1.1 1-4.9-3.4-3.3-1.3.6-2.4 1-3.8 1-.7-1.8-1-3.3-1.4-4.7-.6-.5-1.3-.9-2-1.7z"/><path fill="#2E5C97" d="M219 347.4z"/><path fill="#DDE4EE" d="M239 354.4c4.5-6.2 8.8-6.5 11.9-1-3.1.5-8.2-4.3-8.9 2.5-.3 3.1 2.3 4 6 3l-3.8-1.8.2-1.5c2.5.3 5 .5 7.7 1.1-1 1.9-2.3 3.4-3.8 5.2-6.9.3-8.6-1.1-9.2-7.5z"/><path fill="#3D63A0" d="M228 358.8c-.3 0-.5-.1-.8-.5.3-.2.5 0 .7.5z"/><path fill="#F9F9FB" d="M261 297.7c-12.8.4-25.6.7-38.7.7 4-2.6 8.1-5 12.6-6.8 21.8-9 42.5-4.2 62.6 5.8.7.4 1 1.6 1.5 2.4l-21-1.7-17-.4z"/><path fill="#5269A8" d="M261 298c5.4-.2 10.7 0 16.6.1 2.9 3 5.3 6 8 8.9 1.3 1.7 2.2 3.4 3.5 6-5.9.2-10.3 5.3-16.6 2.9-1.4-.6-3.2 0-5.1-.3L262 307l-1-9z"/><path fill="#E2EEF8" d="M299.4 300c-.9-1-1.2-2.2-1.9-2.6-20.1-10-40.8-14.7-62.6-5.8-4.5 1.8-8.7 4.2-13.1 6.7-2.4.7-4.8 1-7.5 1.2 0-1 .3-2.5 1.1-3a98.2 98.2 0 0 1 37.2-12.8c9.4-.9 18.4 0 26.9 2.7 9 2.8 18.7 5.7 25.6 13.7a21 21 0 0 1-5.7-.1z"/><path fill="#E5E9EE" d="M281.6 336.7c-.3-.8-.2-1.4 0-2.2 1.1-2.3 2.3-4.2 3.7-6.4l-3.7-1.8.4-1.6c2.3.5 4.6 1 6.8 2.2-.5 1.4-.8 2.2-1.5 3.3l-1.6 3 3.5 2.8-7.6.7z"/><path fill="#3D4E87" d="M287.6 330c.4-.9.7-1.7 1.3-2.7 3 0 5.7.4 8.8.7.4 2.4.4 4.7.4 7.6-1.5 0-3-.2-4.7-.9 1.6-2.4 1.5-4-1.5-4.5-1.4-.3-2.9-.2-4.3-.3z"/><path fill="#4D5B97" d="M287.3 330.2c1.7-.2 3.2-.3 4.6 0 3 .5 3 2 1.2 4.5-1.1.6-2.2 1-3.6 1.3-1.4-.8-2.4-1.6-3.8-2.7.3-.7.8-1.8 1.6-3.1z"/><path fill="#4A6CA9" d="M261.6 307c2 2.7 3.7 5.5 5.4 8.6a141 141 0 0 1-7.7 9.4c-.8 1-2 1.6-3.1 2.7-1.2 1.2-2.6 2-3 3.2-.6 1.3 0 3-.3 4.4-.3.9-1.3 1.5-2 2.3-.6-.7-1.8-1.4-1.8-2 .8-7-4.1-6.5-9-7.1-2.3-4.8-5.8-4-9.3-3.1-1.2-.5-2.4-1.3-3.7-1.3-2.8 0-3-1.7-3.2-4 0-3-.6-6.1-.9-9.7 11-.7 22-1 33.1-1.5 1.7 0 3.4-1.2 5.5-1.9z"/><path fill="#E5E9EE" d="M272.6 335c-.6.6-2.1 1.3-2.2 1.2-2.4-3.5-4.4-2.8-6.6.1-.3.5-1.7.3-3.4.5 1.3-2.5 2.3-4.3 3.3-6.5l3.5-6.8 5.4 11.5zM206.5 329.5c1.7-3.8 4.3-5.5 8-4.5 3.6 1 5 3.6 4.6 7.6-2.1 3.4-4.6 5.5-8.6 4.2-3.5-1.1-4.2-3.8-4-7.3m10 .4c-1.6-.9-3-2.1-4.7-2.5-.6-.1-2.3 1.5-2.5 2.5-.1 1.3.4 3 1.3 4 2.1 2.2 4.5.8 5.9-4z"/><path fill="#DDE4EE" d="M230.6 325.7c3.7-1.1 7.2-2 9 2.7-1.2 0-2.5-.8-3.7-.7-1.4 0-3.2.4-4.2 1.3-.7.6-.8 2.9-.2 3.5a7 7 0 0 0 4 1.7c1.2.1 2.5-.6 4-1-2.5 5.3-6.1 5.4-11 .5l-.5-2.4c.7-2 1.5-3.7 2.6-5.6z"/><path fill="#3D63A0" d="M194.8 329c-.7-.2-1.2-.6-1.6-1l.6-.5c.4.4.8.8 1 1.4z"/><path fill="#4A6CA9" d="M216.6 330.3c-1.5 4.4-3.9 5.8-6 3.5a5.1 5.1 0 0 1-1.3-3.9c.2-1 1.9-2.6 2.5-2.5 1.7.4 3.1 1.6 4.8 2.9z"/></svg>